<?xml version="1.0" encoding="utf-8"?>
<!-- Generator: Adobe Illustrator 23.1.0, SVG Export Plug-In . SVG Version: 6.00 Build 0)  -->
<svg version="1.1" id="Layer_1" xmlns="http://www.w3.org/2000/svg" xmlns:xlink="http://www.w3.org/1999/xlink" x="0px" y="0px"
	 viewBox="0 0 195.97 62.87" style="enable-background:new 0 0 195.97 62.87;" xml:space="preserve">
<style type="text/css">
	.st0{fill:#FFFFFF;}
	.st1{fill:url(#SVGID_1_);}
	.st2{fill:url(#SVGID_2_);}
	.st3{fill:url(#SVGID_3_);}
	.st4{fill:url(#SVGID_4_);}
	.st5{fill:url(#SVGID_5_);}
	.st6{fill:url(#SVGID_6_);}
	.st7{fill:url(#SVGID_7_);}
	.st8{fill:url(#SVGID_8_);}
	.st9{fill:url(#SVGID_9_);}
	.st10{fill:url(#SVGID_10_);}
	.st11{fill:url(#SVGID_11_);}
	.st12{fill:url(#SVGID_12_);}
	.st13{fill:url(#SVGID_13_);}
	.st14{fill:url(#SVGID_14_);}
	.st15{fill:url(#SVGID_15_);}
	.st16{fill:url(#SVGID_16_);}
	.st17{fill:url(#SVGID_17_);}
	.st18{fill:url(#SVGID_18_);}
	.st19{fill:url(#SVGID_19_);}
	.st20{fill:url(#SVGID_20_);}
	.st21{fill:url(#SVGID_21_);}
	.st22{fill:url(#SVGID_22_);}
	.st23{fill:url(#SVGID_23_);}
	.st24{fill:url(#SVGID_24_);}
	.st25{fill:url(#SVGID_25_);}
</style>
<g>
	<g>
		<g>
			<path class="st0" d="M152.49,60.87c-0.51,0-1.03-0.03-1.54-0.09c-3.07-0.37-5.76-1.67-7.89-3.81c-2.04,1.26-4.4,1.95-6.82,1.95
				c-0.52,0-1.05-0.03-1.58-0.09c-2.47-0.3-4.79-1.29-6.69-2.83c-4.04,2.73-8.92,4.22-13.92,4.22c-5.27,0-10.35-1.6-14.46-4.53
				c-1.23,0.69-2.58,1.18-3.98,1.42l-13.72,2.46c-0.77,0.14-1.55,0.21-2.32,0.21c-3.72,0-7.28-1.65-9.72-4.42
				c-4.21,3.15-9.4,4.86-14.83,4.86c-5.4,0-10.57-1.67-14.74-4.73c-3.09,2.23-6.69,3.62-10.94,4.24c-1.18,0.17-2.37,0.26-3.55,0.26
				c-11.88,0-21.76-8.6-23.49-20.45c-0.96-6.55,0.61-12.9,4.42-17.97c3.79-5.05,9.44-8.35,15.93-9.29c1.45-0.21,2.87-0.32,4.23-0.32
				c4.07,0,7.76,0.92,11.29,2.82c1,0.54,1.9,1.2,2.7,1.96c2.95-2.07,6.33-3.45,9.93-4.07V7.61c0-3.03,2.2-5.23,5.24-5.23h1.46
				c0.59,0,1.17,0.09,1.72,0.27c0.58-0.18,1.23-0.27,1.99-0.27h1.48c0.17,0,0.33,0.01,0.5,0.02c0.48-0.12,0.99-0.18,1.51-0.18h0.64
				c2.07,0,3.77,0.89,4.75,2.42c0.15,0,0.3-0.01,0.44-0.01c1.16,0,2.23,0.19,3.18,0.58C74.44,3.29,76.28,2,78.52,2h1.41
				c1.98,0,3.68,1.04,4.56,2.64c0.01,0,0.02,0,0.03,0c1.17,0,2.26,0.2,3.25,0.59c1.05-0.35,2.26-0.54,3.77-0.59l0.55,0
				c0.6,0,1.19,0.09,1.73,0.28c0.73-0.18,1.52-0.28,2.35-0.28c1.17,0,2.29,0.22,3.29,0.66c1.03-0.44,2.18-0.66,3.44-0.66
				c1.2,0,2.32,0.21,3.33,0.62c1.23-0.41,2.56-0.62,3.96-0.62c0.44,0,0.87,0.03,1.28,0.08c0.94-0.92,2.23-1.44,3.67-1.44h1.4
				c1.47,0,2.8,0.56,3.75,1.52c0.58-0.08,1.21-0.14,1.91-0.16l0.55,0c0.5,0,0.99,0.06,1.46,0.19c0.03,0,1.52,0,1.52,0
				c0.4,0,0.8,0.04,1.18,0.12c0.38-0.08,0.77-0.12,1.17-0.12h1.42c0.53,0,1.05,0.07,1.54,0.21c1.01-0.27,2.06-0.41,3.14-0.41
				c0.58,0,1.16,0.05,1.7,0.16c0.61-0.11,1.23-0.16,1.85-0.16c4.4,0,7.47,3.07,7.47,7.47v0.41l4.39,0.53
				c3.89,0.47,7.4,1.75,10.25,3.73c2.57-1.76,5.63-2.93,8.93-3.43c1.38-0.21,2.76-0.31,4.12-0.31c3.54,0,6.95,0.71,10.14,2.1
				c4.02,1.7,6.94,5.47,7.6,9.84c0.3,1.99,0.14,4-0.47,5.87c1.88,2.32,3.11,5.19,3.59,8.37c0.82,5.44-0.58,10.54-3.93,14.45
				c-3.09,3.62-7.59,5.96-13.01,6.77c-1.34,0.2-2.72,0.31-4.08,0.31c-4.2,0-8.37-0.96-12.08-2.79
				C158.34,59.82,155.45,60.87,152.49,60.87z"/>
			<path d="M79.92,4c1.71,0,2.98,1.14,3.17,2.77c0.45-0.09,0.92-0.13,1.42-0.13c1.19,0,2.28,0.26,3.19,0.77
				c0.13-0.06,0.26-0.12,0.4-0.18c0.91-0.35,2.02-0.54,3.5-0.59l0.02,0l0.02,0h0.02h0.02h0.4c0.6,0,1.15,0.14,1.62,0.4
				c0.73-0.27,1.56-0.4,2.46-0.4c1.23,0,2.36,0.32,3.29,0.9c0.95-0.59,2.12-0.9,3.45-0.9c1.22,0,2.32,0.27,3.25,0.8
				c0.1-0.05,0.21-0.1,0.32-0.14c1.12-0.44,2.37-0.66,3.72-0.66c0.76,0,1.46,0.11,2.1,0.31c0.51-1.02,1.56-1.67,2.85-1.67h1.4
				c1.33,0,2.39,0.66,2.88,1.73c0.78-0.21,1.7-0.34,2.84-0.38l0.02,0l0.02,0h0.02h0.02h0.4c0.42,0,0.83,0.07,1.21,0.21
				c0.12-0.01,0.24-0.02,0.35-0.02h1.42c0.42,0,0.82,0.07,1.18,0.2c0.36-0.13,0.76-0.2,1.17-0.2h1.42c0.53,0,1.03,0.11,1.47,0.32
				c1.01-0.34,2.08-0.51,3.2-0.51c0.59,0,1.15,0.07,1.68,0.2c0.61-0.13,1.24-0.2,1.88-0.2c3.32,0,5.47,2.15,5.47,5.47v2.19
				l6.15,0.74c4.13,0.5,7.72,1.96,10.47,4.25c2.53-2.06,5.7-3.42,9.24-3.96c1.28-0.19,2.56-0.29,3.82-0.29
				c3.26,0,6.4,0.65,9.34,1.93c3.41,1.44,5.87,4.62,6.42,8.31c0.31,2.07,0.04,4.12-0.8,5.98c2.08,2.17,3.43,5.01,3.91,8.25
				l0.01,0.09c0.72,4.76-0.52,9.29-3.49,12.76c-2.78,3.25-6.85,5.35-11.79,6.1c-1.25,0.19-2.52,0.28-3.79,0.28
				c-4.03,0-8.02-0.95-11.54-2.75c-0.28-0.14-0.57-0.3-0.84-0.48c-2.03,2.12-4.87,3.35-7.84,3.35c-0.43,0-0.87-0.03-1.3-0.08
				c-3.2-0.38-5.88-1.94-7.83-4.52c-1.97,1.69-4.49,2.64-7.12,2.64c-0.44,0-0.89-0.03-1.34-0.08c-2.63-0.32-5-1.52-6.77-3.43
				c-3.95,3.11-8.89,4.8-14.08,4.8c-5.35,0-10.41-1.75-14.37-4.96c-1.31,0.95-2.82,1.6-4.43,1.89l-13.72,2.46
				c-0.65,0.12-1.31,0.18-1.97,0.18c-3.85,0-7.4-2.06-9.36-5.29c-4.11,3.7-9.47,5.73-15.19,5.73c-5.54,0-10.72-1.86-14.73-5.26
				c-3.08,2.57-6.77,4.14-11.24,4.8c-1.08,0.16-2.18,0.24-3.27,0.24c-10.88,0-19.93-7.88-21.52-18.73l-0.01-0.07
				C3.38,33.23,4.82,27.4,8.29,22.77c3.47-4.62,8.66-7.65,14.62-8.52c1.35-0.2,2.68-0.3,3.94-0.3c3.73,0,7.1,0.84,10.34,2.58l0.01,0
				l0.01,0c1.32,0.72,2.47,1.7,3.39,2.89c3.42-2.83,7.66-4.58,12.18-5.02V7.61c0-1.9,1.33-3.23,3.24-3.23h1.46
				c0.63,0,1.21,0.15,1.71,0.44c0.01-0.01,0.03-0.02,0.04-0.02l0.05-0.03l0.05-0.03l0.06-0.02l0.05-0.02
				c0.48-0.21,1.02-0.31,1.75-0.31h1.48c0.22,0,0.44,0.02,0.65,0.06c0.42-0.14,0.88-0.22,1.36-0.22h0.64c1.82,0,3.11,0.96,3.51,2.54
				c0.55-0.08,1.11-0.13,1.68-0.13c1.31,0,2.45,0.31,3.35,0.91c0.44-0.29,0.94-0.52,1.48-0.67C75.48,5.19,76.77,4,78.52,4H79.92
				 M79.92,0h-1.4C76.09,0,74,1.09,72.71,2.85c-0.54-0.11-1.1-0.18-1.67-0.2c-1.38-1.53-3.4-2.42-5.73-2.42h-0.64
				c-0.57,0-1.13,0.05-1.67,0.16c-0.11-0.01-0.23-0.01-0.34-0.01h-1.48c-0.72,0-1.37,0.06-1.98,0.2c-0.56-0.13-1.14-0.2-1.73-0.2
				h-1.46c-4.13,0-7.24,3.11-7.24,7.23v3.41c-2.77,0.65-5.39,1.74-7.78,3.21c-0.59-0.45-1.21-0.85-1.87-1.21l-0.03-0.02l-0.04-0.02
				c-3.8-2.04-7.8-3.04-12.2-3.04c-1.45,0-2.98,0.11-4.52,0.34C15.32,11.32,9.2,14.9,5.1,20.37c-4.12,5.49-5.83,12.38-4.81,19.39
				l0.01,0.07c1.88,12.84,12.59,22.16,25.47,22.16c1.28,0,2.57-0.09,3.85-0.28c4.05-0.59,7.56-1.84,10.64-3.79
				c4.29,2.79,9.42,4.3,14.75,4.3c5.26,0,10.32-1.49,14.6-4.26c2.71,2.42,6.26,3.82,9.95,3.82c0.89,0,1.79-0.08,2.67-0.24
				l13.72-2.46c1.2-0.21,2.37-0.58,3.48-1.08c4.26,2.73,9.35,4.21,14.61,4.21c4.91,0,9.72-1.33,13.84-3.8
				c1.94,1.28,4.17,2.11,6.53,2.39c0.61,0.07,1.22,0.11,1.82,0.11c2.28,0,4.51-0.52,6.53-1.51c2.24,1.85,4.94,2.99,7.94,3.35
				c0.59,0.07,1.19,0.11,1.78,0.11c2.99,0,5.92-0.92,8.37-2.59c3.69,1.62,7.75,2.47,11.85,2.47c1.46,0,2.94-0.11,4.38-0.33
				c5.9-0.89,10.82-3.47,14.23-7.45c3.73-4.36,5.3-10.03,4.41-15.96l-0.02-0.11c-0.47-3.14-1.63-6.03-3.37-8.46
				c0.46-1.86,0.55-3.81,0.26-5.75c-0.76-5.05-4.13-9.41-8.8-11.39c-3.44-1.5-7.11-2.26-10.91-2.26c-1.45,0-2.94,0.11-4.42,0.34
				c-3.13,0.47-6.06,1.51-8.63,3.03c-2.89-1.75-6.3-2.89-10.02-3.34l-2.71-0.33c-0.59-4.83-4.28-8.1-9.39-8.1
				c-0.62,0-1.23,0.04-1.84,0.13c-0.56-0.09-1.13-0.13-1.72-0.13c-1.07,0-2.13,0.12-3.14,0.35c-0.5-0.1-1.01-0.15-1.53-0.15h-1.42
				c-0.4,0-0.79,0.03-1.17,0.09c-0.39-0.06-0.78-0.09-1.18-0.09h-1.27c-0.55-0.13-1.12-0.19-1.71-0.19h-0.4h-0.07l-0.11,0
				c-0.43,0.01-0.85,0.04-1.24,0.07c-1.22-0.91-2.75-1.43-4.39-1.43h-1.4c-1.59,0-3.09,0.49-4.3,1.37
				c-0.21-0.01-0.43-0.02-0.65-0.02c-1.37,0-2.68,0.17-3.91,0.52c-1.06-0.34-2.2-0.52-3.37-0.52c-1.2,0-2.36,0.18-3.43,0.52
				c-1.04-0.35-2.16-0.52-3.31-0.52c-0.79,0-1.56,0.07-2.29,0.22c-0.58-0.14-1.18-0.22-1.79-0.22h-0.4h-0.07l-0.11,0l0,0l-0.05,0
				c-1.4,0.05-2.59,0.21-3.65,0.48c-0.71-0.22-1.45-0.37-2.22-0.44C84.28,1.03,82.24,0,79.92,0L79.92,0z"/>
		</g>
		<g>
			<linearGradient id="SVGID_1_" gradientUnits="userSpaceOnUse" x1="8.2666" y1="11.6443" x2="184.666" y2="11.6443">
				<stop  offset="0" style="stop-color:#95C943"/>
				<stop  offset="0.2554" style="stop-color:#3EA9DD"/>
				<stop  offset="0.6619" style="stop-color:#E824A7"/>
				<stop  offset="1" style="stop-color:#F59236"/>
			</linearGradient>
			<path class="st1" d="M63.11,15.58c0.19,0.35,0.08,0.63-0.33,0.63h-1.39c-0.71,0-0.94-0.09-1.15-0.54l-1.12-2.31
				c-0.22-0.46-0.41-0.64-0.88-0.64h-0.23v2.95c0,0.4-0.13,0.54-0.54,0.54h-1.46c-0.41,0-0.55-0.14-0.55-0.54V7.61
				c0-0.4,0.14-0.54,0.55-0.54h1.46c0.41,0,0.54,0.14,0.54,0.54v2.86h0.18h0.1l1.85-2.92c0.13-0.21,0.26-0.34,0.37-0.4
				c0.12-0.05,0.33-0.08,0.66-0.08h1.48c0.4,0,0.52,0.22,0.31,0.57l-2.34,3.73c0.29,0.22,0.57,0.54,0.79,0.99L63.11,15.58z"/>
			<linearGradient id="SVGID_2_" gradientUnits="userSpaceOnUse" x1="8.2666" y1="11.5669" x2="184.666" y2="11.5669">
				<stop  offset="0" style="stop-color:#95C943"/>
				<stop  offset="0.2554" style="stop-color:#3EA9DD"/>
				<stop  offset="0.6619" style="stop-color:#E824A7"/>
				<stop  offset="1" style="stop-color:#F59236"/>
			</linearGradient>
			<path class="st2" d="M65.32,6.92c0.72,0,0.95,0.23,0.95,0.95v0.14c0,0.72-0.23,0.95-0.95,0.95h-0.64c-0.73,0-0.97-0.23-0.97-0.95
				V7.87c0-0.72,0.23-0.95,0.97-0.95H65.32z M65.69,9.52c0.37,0,0.5,0.13,0.5,0.49v5.72c0,0.36-0.13,0.49-0.5,0.49h-1.4
				c-0.37,0-0.5-0.13-0.5-0.49v-5.72c0-0.36,0.13-0.49,0.5-0.49H65.69z"/>
			<linearGradient id="SVGID_3_" gradientUnits="userSpaceOnUse" x1="8.2666" y1="12.7708" x2="184.666" y2="12.7708">
				<stop  offset="0" style="stop-color:#95C943"/>
				<stop  offset="0.2554" style="stop-color:#3EA9DD"/>
				<stop  offset="0.6619" style="stop-color:#E824A7"/>
				<stop  offset="1" style="stop-color:#F59236"/>
			</linearGradient>
			<path class="st3" d="M70.51,9.33c1.94,0,2.9,0.99,2.9,2.78v3.62c0,0.36-0.12,0.49-0.49,0.49H71.5c-0.36,0-0.49-0.13-0.49-0.49
				V12.2c0-0.48-0.26-0.71-0.77-0.71c-0.23,0-0.43,0.01-0.57,0.05c-0.03,0.01-0.04,0.03-0.04,0.05v4.13c0,0.36-0.12,0.49-0.49,0.49
				h-1.42c-0.37,0-0.49-0.13-0.49-0.49v-5.15c0-0.43,0.1-0.61,0.53-0.77C68.59,9.48,69.5,9.33,70.51,9.33z"/>
			<linearGradient id="SVGID_4_" gradientUnits="userSpaceOnUse" x1="8.2666" y1="11.5479" x2="184.666" y2="11.5479">
				<stop  offset="0" style="stop-color:#95C943"/>
				<stop  offset="0.2554" style="stop-color:#3EA9DD"/>
				<stop  offset="0.6619" style="stop-color:#E824A7"/>
				<stop  offset="1" style="stop-color:#F59236"/>
			</linearGradient>
			<path class="st4" d="M74.24,12.24c0-1.89,1-2.91,2.91-2.91c0.09,0,0.37,0.01,0.86,0.04V7.18c0-0.36,0.13-0.49,0.5-0.49h1.4
				c0.37,0,0.5,0.13,0.5,0.49v8.05c0,0.42-0.09,0.54-0.54,0.73c-0.76,0.3-1.65,0.45-2.65,0.45c-1,0-1.75-0.24-2.24-0.72
				c-0.5-0.48-0.75-1.17-0.75-2.06V12.24z M78.01,11.46c-0.19-0.04-0.39-0.06-0.57-0.06c-0.53,0-0.8,0.23-0.8,0.71v1.58
				c0,0.42,0.24,0.63,0.73,0.63c0.24,0,0.44-0.01,0.59-0.05c0.03-0.01,0.04-0.03,0.04-0.06V11.46z"/>
			<linearGradient id="SVGID_5_" gradientUnits="userSpaceOnUse" x1="8.2666" y1="12.8674" x2="184.666" y2="12.8674">
				<stop  offset="0" style="stop-color:#95C943"/>
				<stop  offset="0.2554" style="stop-color:#3EA9DD"/>
				<stop  offset="0.6619" style="stop-color:#E824A7"/>
				<stop  offset="1" style="stop-color:#F59236"/>
			</linearGradient>
			<path class="st5" d="M81.29,12.3c0-1.92,1.12-2.97,3.22-2.97c2.12,0,3.23,1.17,3.23,2.82v0.71c0,0.45-0.23,0.67-0.71,0.67h-3.35
				v0.24c0,0.55,0.28,0.84,0.84,0.84c0.44,0,0.79-0.15,1.03-0.48c0.17-0.26,0.3-0.3,0.72-0.13l0.89,0.39
				c0.35,0.17,0.42,0.41,0.24,0.75c-0.49,0.85-1.46,1.27-2.91,1.27c-2.2,0-3.21-1.17-3.21-2.97V12.3z M85.33,11.8
				c0-0.51-0.27-0.77-0.82-0.77c-0.55,0-0.82,0.26-0.82,0.77v0.17h1.65V11.8z"/>
			<linearGradient id="SVGID_6_" gradientUnits="userSpaceOnUse" x1="8.2666" y1="12.7708" x2="184.666" y2="12.7708">
				<stop  offset="0" style="stop-color:#95C943"/>
				<stop  offset="0.2554" style="stop-color:#3EA9DD"/>
				<stop  offset="0.6619" style="stop-color:#E824A7"/>
				<stop  offset="1" style="stop-color:#F59236"/>
			</linearGradient>
			<path class="st6" d="M92.08,9.33c0.37,0,0.49,0.13,0.49,0.49v1.09c0,0.37-0.12,0.5-0.49,0.5h-0.49c-0.23,0-0.43,0.01-0.59,0.05
				c-0.04,0-0.06,0.03-0.06,0.08v4.18c0,0.36-0.13,0.49-0.5,0.49h-1.4c-0.37,0-0.5-0.13-0.5-0.49v-5.21c0-0.43,0.12-0.6,0.54-0.77
				c0.63-0.24,1.49-0.37,2.61-0.41H92.08z"/>
			<linearGradient id="SVGID_7_" gradientUnits="userSpaceOnUse" x1="8.2666" y1="12.8674" x2="184.666" y2="12.8674">
				<stop  offset="0" style="stop-color:#95C943"/>
				<stop  offset="0.2554" style="stop-color:#3EA9DD"/>
				<stop  offset="0.6619" style="stop-color:#E824A7"/>
				<stop  offset="1" style="stop-color:#F59236"/>
			</linearGradient>
			<path class="st7" d="M92.97,12.16c0-1.79,1.04-2.83,3.19-2.83c1.53,0,2.52,0.72,2.9,1.79c0.12,0.4,0.03,0.55-0.35,0.7l-1.2,0.4
				c-0.4,0.12-0.55,0.05-0.71-0.35c-0.14-0.35-0.39-0.53-0.76-0.53c-0.45,0-0.68,0.23-0.68,0.7v1.67c0,0.46,0.23,0.7,0.68,0.7
				c0.37,0,0.62-0.18,0.76-0.53c0.15-0.37,0.31-0.46,0.71-0.32l1.24,0.37c0.37,0.12,0.48,0.35,0.33,0.71
				c-0.49,1.19-1.51,1.78-3.06,1.78c-2.06,0-3.05-1.03-3.05-2.85V12.16z"/>
			<linearGradient id="SVGID_8_" gradientUnits="userSpaceOnUse" x1="8.2666" y1="12.8674" x2="184.666" y2="12.8674">
				<stop  offset="0" style="stop-color:#95C943"/>
				<stop  offset="0.2554" style="stop-color:#3EA9DD"/>
				<stop  offset="0.6619" style="stop-color:#E824A7"/>
				<stop  offset="1" style="stop-color:#F59236"/>
			</linearGradient>
			<path class="st8" d="M99.68,12.3c0-1.92,1.12-2.97,3.22-2.97c2.12,0,3.23,1.17,3.23,2.82v0.71c0,0.45-0.23,0.67-0.71,0.67h-3.35
				v0.24c0,0.55,0.28,0.84,0.84,0.84c0.44,0,0.79-0.15,1.03-0.48c0.17-0.26,0.3-0.3,0.72-0.13l0.89,0.39
				c0.35,0.17,0.42,0.41,0.24,0.75c-0.49,0.85-1.45,1.27-2.91,1.27c-2.2,0-3.21-1.17-3.21-2.97V12.3z M103.72,11.8
				c0-0.51-0.27-0.77-0.82-0.77s-0.82,0.26-0.82,0.77v0.17h1.65V11.8z"/>
			<linearGradient id="SVGID_9_" gradientUnits="userSpaceOnUse" x1="8.2666" y1="12.7708" x2="184.666" y2="12.7708">
				<stop  offset="0" style="stop-color:#95C943"/>
				<stop  offset="0.2554" style="stop-color:#3EA9DD"/>
				<stop  offset="0.6619" style="stop-color:#E824A7"/>
				<stop  offset="1" style="stop-color:#F59236"/>
			</linearGradient>
			<path class="st9" d="M110.19,9.33c1.94,0,2.9,0.99,2.9,2.78v3.62c0,0.36-0.12,0.49-0.49,0.49h-1.42c-0.36,0-0.49-0.13-0.49-0.49
				V12.2c0-0.48-0.26-0.71-0.77-0.71c-0.23,0-0.43,0.01-0.57,0.05c-0.03,0.01-0.04,0.03-0.04,0.05v4.13c0,0.36-0.12,0.49-0.49,0.49
				h-1.42c-0.37,0-0.49-0.13-0.49-0.49v-5.15c0-0.43,0.1-0.61,0.53-0.77C108.27,9.48,109.18,9.33,110.19,9.33z"/>
			<linearGradient id="SVGID_10_" gradientUnits="userSpaceOnUse" x1="8.2666" y1="12.1795" x2="184.666" y2="12.1795">
				<stop  offset="0" style="stop-color:#95C943"/>
				<stop  offset="0.2554" style="stop-color:#3EA9DD"/>
				<stop  offset="0.6619" style="stop-color:#E824A7"/>
				<stop  offset="1" style="stop-color:#F59236"/>
			</linearGradient>
			<path class="st10" d="M116.53,7.97c0.37,0,0.5,0.13,0.5,0.49v1.05h0.89c0.37,0,0.49,0.13,0.49,0.49v0.97
				c0,0.37-0.12,0.5-0.49,0.5h-0.89v1.89c0,0.68,0.22,0.9,0.88,0.9c0.4,0,0.5,0.13,0.5,0.5v1.11c0,0.37-0.1,0.5-0.5,0.5
				c-2.28,0.04-3.28-0.73-3.28-2.85v-2.06h-0.55c-0.37,0-0.49-0.13-0.49-0.5v-0.97c0-0.36,0.12-0.49,0.49-0.49h0.55V8.46
				c0-0.36,0.13-0.49,0.5-0.49H116.53z"/>
			<linearGradient id="SVGID_11_" gradientUnits="userSpaceOnUse" x1="8.2666" y1="12.7708" x2="184.666" y2="12.7708">
				<stop  offset="0" style="stop-color:#95C943"/>
				<stop  offset="0.2554" style="stop-color:#3EA9DD"/>
				<stop  offset="0.6619" style="stop-color:#E824A7"/>
				<stop  offset="1" style="stop-color:#F59236"/>
			</linearGradient>
			<path class="st11" d="M122.74,9.33c0.37,0,0.49,0.13,0.49,0.49v1.09c0,0.37-0.12,0.5-0.49,0.5h-0.49c-0.23,0-0.43,0.01-0.59,0.05
				c-0.04,0-0.06,0.03-0.06,0.08v4.18c0,0.36-0.13,0.49-0.5,0.49h-1.4c-0.37,0-0.5-0.13-0.5-0.49v-5.21c0-0.43,0.12-0.6,0.54-0.77
				c0.63-0.24,1.49-0.37,2.61-0.41H122.74z"/>
			<linearGradient id="SVGID_12_" gradientUnits="userSpaceOnUse" x1="8.2666" y1="12.9639" x2="184.666" y2="12.9639">
				<stop  offset="0" style="stop-color:#95C943"/>
				<stop  offset="0.2554" style="stop-color:#3EA9DD"/>
				<stop  offset="0.6619" style="stop-color:#E824A7"/>
				<stop  offset="1" style="stop-color:#F59236"/>
			</linearGradient>
			<path class="st12" d="M129.49,9.52c0.37,0,0.49,0.13,0.49,0.49v5.15c0,0.43-0.1,0.61-0.53,0.77c-0.81,0.32-1.73,0.48-2.74,0.48
				c-1.94,0-2.9-0.99-2.9-2.78v-3.62c0-0.36,0.11-0.49,0.49-0.49h1.42c0.37,0,0.49,0.13,0.49,0.49v3.53c0,0.48,0.26,0.71,0.77,0.71
				c0.17,0,0.35-0.01,0.52-0.05c0.06-0.01,0.09-0.05,0.09-0.12v-4.07c0-0.36,0.13-0.49,0.49-0.49H129.49z"/>
			<linearGradient id="SVGID_13_" gradientUnits="userSpaceOnUse" x1="8.2666" y1="12.7708" x2="184.666" y2="12.7708">
				<stop  offset="0" style="stop-color:#95C943"/>
				<stop  offset="0.2554" style="stop-color:#3EA9DD"/>
				<stop  offset="0.6619" style="stop-color:#E824A7"/>
				<stop  offset="1" style="stop-color:#F59236"/>
			</linearGradient>
			<path class="st13" d="M137.72,9.33c1.85,0,2.78,0.93,2.78,2.78v3.62c0,0.36-0.12,0.49-0.49,0.49h-1.42
				c-0.36,0-0.49-0.13-0.49-0.49v-3.55c0-0.45-0.22-0.68-0.66-0.68c-0.17,0-0.35,0.03-0.54,0.06c0.04,0.17,0.05,0.36,0.05,0.59v3.58
				c0,0.36-0.13,0.49-0.5,0.49h-1.4c-0.37,0-0.5-0.13-0.5-0.49v-3.55c0-0.45-0.22-0.68-0.66-0.68c-0.15,0-0.3,0.01-0.44,0.04
				c-0.04,0.01-0.05,0.04-0.05,0.08v4.12c0,0.36-0.12,0.49-0.49,0.49h-1.42c-0.37,0-0.49-0.13-0.49-0.49v-5.15
				c0-0.43,0.1-0.61,0.53-0.77c0.82-0.32,1.7-0.48,2.63-0.48c0.63,0,1.16,0.12,1.58,0.33C136.35,9.44,137.01,9.33,137.72,9.33z"/>
		</g>
	</g>
	<g>
		<g>
			<linearGradient id="SVGID_14_" gradientUnits="userSpaceOnUse" x1="8.2666" y1="35.43" x2="184.666" y2="35.43">
				<stop  offset="0" style="stop-color:#95C943"/>
				<stop  offset="0.2554" style="stop-color:#3EA9DD"/>
				<stop  offset="0.6619" style="stop-color:#E824A7"/>
				<stop  offset="1" style="stop-color:#F59236"/>
			</linearGradient>
			<path class="st14" d="M12.19,37.55l-0.01-0.08c-1.11-7.58,3.7-14.63,11.89-15.83c4-0.59,6.86,0.09,9.31,1.4
				c0.68,0.37,1.33,1.13,1.48,2.16c0.23,1.6-0.88,3.05-2.48,3.28c-0.8,0.12-1.38-0.11-1.84-0.32c-1.82-0.98-3.63-1.41-5.73-1.11
				c-4.5,0.66-7.19,4.87-6.52,9.44l0.01,0.08c0.67,4.57,4.39,7.92,8.96,7.25c2.48-0.36,4-1.37,5.49-2.94c0.4-0.45,0.97-0.8,1.66-0.9
				c1.49-0.22,2.92,0.82,3.14,2.3c0.13,0.91-0.22,1.71-0.68,2.24c-2.09,2.45-4.73,4.12-9,4.74C20.03,50.42,13.31,45.21,12.19,37.55z
				"/>
			<linearGradient id="SVGID_15_" gradientUnits="userSpaceOnUse" x1="8.2666" y1="35.4274" x2="184.666" y2="35.4274">
				<stop  offset="0" style="stop-color:#95C943"/>
				<stop  offset="0.2554" style="stop-color:#3EA9DD"/>
				<stop  offset="0.6619" style="stop-color:#E824A7"/>
				<stop  offset="1" style="stop-color:#F59236"/>
			</linearGradient>
			<path class="st15" d="M28.1,50.81c-8.53,1.25-16.2-4.48-17.45-13.03l-0.01-0.08c-1.28-8.74,4.4-16.3,13.2-17.59
				c3.94-0.58,7.2-0.08,10.27,1.57c1.23,0.67,2.08,1.9,2.29,3.3c0.35,2.42-1.35,4.69-3.79,5.04c-1.15,0.17-2.01-0.13-2.7-0.44
				l-0.1-0.05c-1.65-0.89-3.12-1.18-4.76-0.94c-3.53,0.52-5.77,3.82-5.21,7.68l0.01,0.08c0.57,3.9,3.67,6.46,7.2,5.94
				c2.18-0.32,3.37-1.18,4.58-2.47c0.66-0.73,1.58-1.23,2.57-1.38c2.36-0.35,4.56,1.28,4.9,3.62c0.18,1.24-0.2,2.51-1.05,3.49
				C35.48,48.55,32.41,50.18,28.1,50.81z M24.3,23.18c-7.05,1.03-11.6,7.08-10.58,14.06l0.01,0.08c1.02,6.94,7,11.42,13.92,10.4
				c3.55-0.52,5.96-1.78,8.04-4.21c0.16-0.18,0.4-0.54,0.33-1c-0.09-0.62-0.73-1.08-1.38-0.99c-0.36,0.05-0.61,0.28-0.72,0.4
				c-1.92,2.04-3.83,3.07-6.42,3.44c-5.29,0.77-9.9-2.91-10.73-8.57l-0.01-0.08c-0.81-5.52,2.63-10.44,7.83-11.2
				c2.3-0.34,4.41,0.06,6.64,1.25c0.31,0.14,0.57,0.23,0.93,0.17c0.76-0.11,1.27-0.78,1.16-1.52c-0.07-0.51-0.42-0.87-0.69-1.02
				C30.16,23.08,27.59,22.7,24.3,23.18z"/>
		</g>
		<g>
			<linearGradient id="SVGID_16_" gradientUnits="userSpaceOnUse" x1="8.2666" y1="35.7081" x2="184.666" y2="35.7081">
				<stop  offset="0" style="stop-color:#95C943"/>
				<stop  offset="0.2554" style="stop-color:#3EA9DD"/>
				<stop  offset="0.6619" style="stop-color:#E824A7"/>
				<stop  offset="1" style="stop-color:#F59236"/>
			</linearGradient>
			<path class="st16" d="M40.72,35.78v-0.08c0-7.66,6.05-13.94,14.37-13.94c8.32,0,14.29,6.2,14.29,13.86v0.08
				c0,7.66-6.05,13.94-14.37,13.94C46.69,49.65,40.72,43.45,40.72,35.78z M63.18,35.78v-0.08c0-4.62-3.39-8.47-8.17-8.47
				s-8.09,3.77-8.09,8.4v0.08c0,4.62,3.39,8.47,8.16,8.47C59.86,44.18,63.18,40.41,63.18,35.78z"/>
			<linearGradient id="SVGID_17_" gradientUnits="userSpaceOnUse" x1="8.2666" y1="35.708" x2="184.666" y2="35.708">
				<stop  offset="0" style="stop-color:#95C943"/>
				<stop  offset="0.2554" style="stop-color:#3EA9DD"/>
				<stop  offset="0.6619" style="stop-color:#E824A7"/>
				<stop  offset="1" style="stop-color:#F59236"/>
			</linearGradient>
			<path class="st17" d="M55.01,51.2c-9.03,0-15.84-6.63-15.84-15.42v-0.08c0-8.69,6.99-15.5,15.92-15.5
				c9.03,0,15.84,6.63,15.84,15.42v0.08C70.93,44.4,63.94,51.2,55.01,51.2z M55.09,23.32c-7.3,0-12.81,5.32-12.81,12.39v0.08
				c0,7.02,5.47,12.31,12.73,12.31c7.3,0,12.81-5.33,12.81-12.39v-0.08C67.82,28.61,62.35,23.32,55.09,23.32z M55.09,45.74
				c-5.45,0-9.72-4.41-9.72-10.03v-0.08c0-5.67,4.15-9.95,9.64-9.95c5.45,0,9.72,4.4,9.72,10.03v0.08
				C64.73,41.46,60.59,45.74,55.09,45.74z M55.01,28.79c-3.79,0-6.53,2.88-6.53,6.84v0.08c0,3.94,2.84,6.92,6.61,6.92
				c3.72,0,6.53-2.94,6.53-6.84v-0.08C61.62,31.76,58.78,28.79,55.01,28.79z"/>
		</g>
		<g>
			<linearGradient id="SVGID_18_" gradientUnits="userSpaceOnUse" x1="8.2666" y1="35.7759" x2="184.666" y2="35.7759">
				<stop  offset="0" style="stop-color:#95C943"/>
				<stop  offset="0.2554" style="stop-color:#3EA9DD"/>
				<stop  offset="0.6619" style="stop-color:#E824A7"/>
				<stop  offset="1" style="stop-color:#F59236"/>
			</linearGradient>
			<path class="st18" d="M72.93,25.84c-0.29-1.63,0.77-3.15,2.4-3.44c1.63-0.29,3.15,0.77,3.44,2.4l3.32,18.54l10.8-1.93
				c1.48-0.26,2.86,0.7,3.13,2.18c0.26,1.48-0.7,2.86-2.18,3.13l-13.72,2.46c-1.63,0.29-3.15-0.77-3.44-2.4L72.93,25.84z"/>
			<linearGradient id="SVGID_19_" gradientUnits="userSpaceOnUse" x1="8.2666" y1="35.7757" x2="184.666" y2="35.7757">
				<stop  offset="0" style="stop-color:#95C943"/>
				<stop  offset="0.2554" style="stop-color:#3EA9DD"/>
				<stop  offset="0.6619" style="stop-color:#E824A7"/>
				<stop  offset="1" style="stop-color:#F59236"/>
			</linearGradient>
			<path class="st19" d="M94.11,48.23l-13.72,2.46c-2.5,0.45-4.8-1.16-5.25-3.65L71.4,26.11c-0.45-2.5,1.16-4.8,3.65-5.25
				c2.5-0.45,4.8,1.16,5.25,3.65l3.04,17.01l9.27-1.66c2.31-0.41,4.52,1.13,4.93,3.44C97.96,45.61,96.42,47.82,94.11,48.23z
				 M75.6,23.92c-0.78,0.14-1.28,0.86-1.14,1.64l3.74,20.93c0.14,0.78,0.86,1.28,1.64,1.14l13.72-2.46
				c0.63-0.11,1.03-0.69,0.92-1.33c-0.11-0.63-0.69-1.03-1.32-0.92l-12.33,2.21l-3.59-20.07C77.1,24.29,76.38,23.78,75.6,23.92z"/>
		</g>
		<g>
			<linearGradient id="SVGID_20_" gradientUnits="userSpaceOnUse" x1="8.2666" y1="35.7081" x2="184.666" y2="35.7081">
				<stop  offset="0" style="stop-color:#95C943"/>
				<stop  offset="0.2554" style="stop-color:#3EA9DD"/>
				<stop  offset="0.6619" style="stop-color:#E824A7"/>
				<stop  offset="1" style="stop-color:#F59236"/>
			</linearGradient>
			<path class="st20" d="M99.76,35.78v-0.08c0-7.66,6.05-13.94,14.36-13.94c8.32,0,14.29,6.2,14.29,13.86v0.08
				c0,7.66-6.05,13.94-14.37,13.94C105.73,49.65,99.76,43.45,99.76,35.78z M122.21,35.78v-0.08c0-4.62-3.39-8.47-8.17-8.47
				c-4.78,0-8.09,3.77-8.09,8.4v0.08c0,4.62,3.39,8.47,8.16,8.47C118.9,44.18,122.21,40.41,122.21,35.78z"/>
			<linearGradient id="SVGID_21_" gradientUnits="userSpaceOnUse" x1="8.2666" y1="35.708" x2="184.666" y2="35.708">
				<stop  offset="0" style="stop-color:#95C943"/>
				<stop  offset="0.2554" style="stop-color:#3EA9DD"/>
				<stop  offset="0.6619" style="stop-color:#E824A7"/>
				<stop  offset="1" style="stop-color:#F59236"/>
			</linearGradient>
			<path class="st21" d="M114.05,51.2c-9.03,0-15.84-6.63-15.84-15.42v-0.08c0-8.69,6.99-15.5,15.92-15.5
				c9.03,0,15.84,6.63,15.84,15.42v0.08C129.97,44.4,122.97,51.2,114.05,51.2z M114.12,23.32c-7.3,0-12.81,5.32-12.81,12.39v0.08
				c0,7.02,5.47,12.31,12.73,12.31c7.3,0,12.81-5.33,12.81-12.39v-0.08C126.86,28.61,121.38,23.32,114.12,23.32z M114.12,45.74
				c-5.45,0-9.72-4.41-9.72-10.03v-0.08c0-5.67,4.14-9.95,9.64-9.95c5.45,0,9.72,4.4,9.72,10.03v0.08
				C123.77,41.46,119.62,45.74,114.12,45.74z M114.05,28.79c-3.78,0-6.53,2.88-6.53,6.84v0.08c0,3.94,2.84,6.92,6.61,6.92
				c3.72,0,6.53-2.94,6.53-6.84v-0.08C120.66,31.76,117.81,28.79,114.05,28.79z"/>
		</g>
		<g>
			<linearGradient id="SVGID_22_" gradientUnits="userSpaceOnUse" x1="8.2666" y1="35.8134" x2="184.666" y2="35.8134">
				<stop  offset="0" style="stop-color:#95C943"/>
				<stop  offset="0.2554" style="stop-color:#3EA9DD"/>
				<stop  offset="0.6619" style="stop-color:#E824A7"/>
				<stop  offset="1" style="stop-color:#F59236"/>
			</linearGradient>
			<path class="st22" d="M135.79,23.93c0.2-1.64,1.65-2.79,3.3-2.59l9.29,1.12c3.4,0.41,5.93,1.68,7.47,3.65
				c1.31,1.67,1.86,3.87,1.56,6.39l-0.01,0.08c-0.51,4.21-2.92,6.55-6.33,7.5l3.49,5.46c0.49,0.8,0.8,1.45,0.68,2.37
				c-0.2,1.64-1.7,2.55-3.12,2.38c-1.34-0.16-2.14-0.92-2.72-1.88l-4.86-7.95l-4.7-0.56l-0.7,5.85c-0.2,1.64-1.65,2.79-3.3,2.59
				c-1.64-0.2-2.79-1.65-2.59-3.3L135.79,23.93z M146.44,35.41c2.87,0.34,4.7-0.99,4.97-3.24l0.01-0.08c0.3-2.52-1.3-4.04-4.17-4.38
				l-5.85-0.7l-0.92,7.69L146.44,35.41z"/>
			<linearGradient id="SVGID_23_" gradientUnits="userSpaceOnUse" x1="8.2666" y1="35.8134" x2="184.666" y2="35.8134">
				<stop  offset="0" style="stop-color:#95C943"/>
				<stop  offset="0.2554" style="stop-color:#3EA9DD"/>
				<stop  offset="0.6619" style="stop-color:#E824A7"/>
				<stop  offset="1" style="stop-color:#F59236"/>
			</linearGradient>
			<path class="st23" d="M151.95,51.83c-1.66-0.2-2.92-1.05-3.87-2.62l-4.47-7.31l-2.41-0.29l-0.52,4.31
				c-0.3,2.52-2.51,4.25-5.03,3.95c-2.52-0.3-4.25-2.51-3.95-5.03l2.54-21.11c0.3-2.52,2.51-4.25,5.03-3.95l9.29,1.12
				c3.75,0.45,6.69,1.91,8.51,4.24c1.58,2.01,2.23,4.62,1.88,7.54l-0.01,0.08c-0.46,3.84-2.36,6.6-5.53,8.1l2.46,3.84
				c0.54,0.89,1.09,1.93,0.92,3.39C156.52,50.44,154.34,52.12,151.95,51.83z M138.49,38.16l6.99,0.84l5.26,8.6
				c0.45,0.74,0.89,1.06,1.58,1.15c0.52,0.06,1.29-0.21,1.39-1.02c0.05-0.4-0.05-0.7-0.47-1.37l-4.61-7.21l2.03-0.56
				c3.11-0.86,4.81-2.89,5.2-6.19l0.01-0.08c0.25-2.08-0.18-3.9-1.24-5.25c-1.32-1.68-3.49-2.71-6.44-3.07l-9.29-1.12
				c-0.79-0.09-1.47,0.45-1.57,1.23l-2.54,21.11c-0.09,0.79,0.45,1.47,1.23,1.57c0.79,0.09,1.47-0.45,1.57-1.23L138.49,38.16z
				 M146.25,36.95l-7.51-0.9l1.29-10.77l7.39,0.89c3.81,0.46,5.92,2.8,5.53,6.11l-0.01,0.08C152.57,35.54,149.87,37.39,146.25,36.95
				z M142.2,33.33l4.42,0.53c1.11,0.13,3,0.07,3.24-1.89l0.01-0.08c0.07-0.62,0.27-2.28-2.81-2.65l-4.31-0.52L142.2,33.33z"/>
		</g>
		<g>
			<linearGradient id="SVGID_24_" gradientUnits="userSpaceOnUse" x1="8.2666" y1="36.3537" x2="184.666" y2="36.3537">
				<stop  offset="0" style="stop-color:#95C943"/>
				<stop  offset="0.2554" style="stop-color:#3EA9DD"/>
				<stop  offset="0.6619" style="stop-color:#E824A7"/>
				<stop  offset="1" style="stop-color:#F59236"/>
			</linearGradient>
			<path class="st24" d="M164.8,48.31c-0.72-0.36-1.3-1.13-1.44-2.04c-0.23-1.52,0.81-2.89,2.34-3.12c0.76-0.11,1.33,0.07,1.76,0.28
				c2.24,1.18,4.59,1.76,7.18,1.37c2.4-0.36,3.7-1.53,3.47-3.09l-0.01-0.08c-0.22-1.49-1.25-2.11-5.88-2.58
				c-5.58-0.56-9.27-1.53-10.06-6.82l-0.01-0.08c-0.73-4.84,2.67-8.62,8.12-9.44c3.24-0.49,6.18-0.07,8.81,1.09
				c0.7,0.28,1.47,0.99,1.64,2.13c0.23,1.52-0.81,2.89-2.33,3.12c-0.57,0.09-1.05,0-1.55-0.2c-2.11-0.85-4.04-1.22-5.87-0.95
				c-2.25,0.34-3.27,1.54-3.08,2.84l0.01,0.08c0.26,1.75,1.49,2.15,6.28,2.64c5.62,0.59,8.96,2.08,9.66,6.72l0.01,0.08
				c0.8,5.29-2.79,8.87-8.54,9.74C171.79,50.52,168.09,49.99,164.8,48.31z"/>
			<linearGradient id="SVGID_25_" gradientUnits="userSpaceOnUse" x1="8.2666" y1="36.3525" x2="184.666" y2="36.3525">
				<stop  offset="0" style="stop-color:#95C943"/>
				<stop  offset="0.2554" style="stop-color:#3EA9DD"/>
				<stop  offset="0.6619" style="stop-color:#E824A7"/>
				<stop  offset="1" style="stop-color:#F59236"/>
			</linearGradient>
			<path class="st25" d="M175.53,51.53c-3.91,0.59-7.97-0.07-11.44-1.84c-1.19-0.6-2.06-1.82-2.27-3.2
				c-0.36-2.38,1.24-4.52,3.64-4.89c0.93-0.14,1.83,0,2.68,0.43c2.19,1.15,4.17,1.54,6.25,1.23c0.24-0.04,2.3-0.38,2.16-1.32
				l-0.01-0.08c-0.05-0.31-0.12-0.82-4.5-1.27c-5.47-0.55-10.46-1.59-11.44-8.13l-0.01-0.08c-0.85-5.64,3.03-10.25,9.43-11.21
				c3.43-0.52,6.68-0.12,9.65,1.19c1.07,0.44,2.31,1.54,2.57,3.33c0.36,2.38-1.24,4.52-3.64,4.89c-0.81,0.12-1.55,0.03-2.35-0.29
				c-2-0.8-3.6-1.07-5.06-0.85c-1.09,0.17-1.84,0.62-1.77,1.07l0.01,0.08c0.07,0.47,0.13,0.84,4.9,1.32
				c5.19,0.55,10.12,1.9,11.04,8.04l0.01,0.08C186.27,45.98,182.41,50.5,175.53,51.53z M165.93,44.69c-0.69,0.1-1.13,0.68-1.03,1.35
				c0.07,0.44,0.35,0.76,0.6,0.89c2.91,1.49,6.3,2.03,9.57,1.54c5.17-0.78,7.87-3.76,7.24-7.97l-0.01-0.08
				c-0.44-2.92-1.94-4.74-8.29-5.41c-4.16-0.42-7.17-0.73-7.65-3.95l-0.01-0.08c-0.29-1.92,0.95-4.09,4.38-4.61
				c2-0.3,4.19,0.04,6.68,1.04c0.28,0.11,0.48,0.14,0.74,0.1c0.69-0.1,1.13-0.68,1.03-1.35c-0.1-0.63-0.55-0.86-0.69-0.92
				l-0.05-0.02c-2.43-1.07-5.1-1.4-7.95-0.97c-4.66,0.7-7.4,3.79-6.81,7.67l0.01,0.08c0.61,4.05,3.06,4.94,8.68,5.5
				c3.97,0.41,6.81,0.92,7.26,3.9l0.01,0.08c0.28,1.87-0.8,4.26-4.77,4.86c-2.73,0.41-5.39-0.09-8.13-1.53
				C166.47,44.68,166.23,44.64,165.93,44.69z"/>
		</g>
	</g>
</g>
</svg>
