<?xml version="1.0" encoding="utf-8"?>
<!-- Generator: Adobe Illustrator 23.1.0, SVG Export Plug-In . SVG Version: 6.00 Build 0)  -->
<svg version="1.1" id="Layer_1" xmlns="http://www.w3.org/2000/svg" xmlns:xlink="http://www.w3.org/1999/xlink" x="0px" y="0px"
	 viewBox="0 0 207.56 79.1" style="enable-background:new 0 0 207.56 79.1;" xml:space="preserve">
<style type="text/css">
	.st0{fill:#FFFFFF;}
	.st1{fill:url(#SVGID_1_);}
	.st2{fill:url(#SVGID_2_);}
	.st3{fill:url(#SVGID_3_);}
	.st4{fill:url(#SVGID_4_);}
	.st5{fill:url(#SVGID_5_);}
	.st6{fill:url(#SVGID_6_);}
	.st7{fill:url(#SVGID_7_);}
	.st8{fill:url(#SVGID_8_);}
	.st9{fill:url(#SVGID_9_);}
	.st10{fill:url(#SVGID_10_);}
	.st11{fill:url(#SVGID_11_);}
	.st12{fill:url(#SVGID_12_);}
	.st13{fill:url(#SVGID_13_);}
	.st14{fill:url(#SVGID_14_);}
	.st15{fill:url(#SVGID_15_);}
	.st16{fill:url(#SVGID_16_);}
	.st17{fill:url(#SVGID_17_);}
	.st18{fill:url(#SVGID_18_);}
	.st19{fill:url(#SVGID_19_);}
	.st20{fill:url(#SVGID_20_);}
</style>
<g>
	<g>
		<path d="M163.76,74.54c-1.46-0.11-3.09-0.25-4.64-0.4c-1.1-0.11-3.21-0.32-4.93-0.55c-0.79-0.11-1.43-0.21-1.97-0.32
			c-0.33-0.07-0.65-0.15-0.97-0.24c-0.28,0.03-0.57,0.04-0.86,0.04c-1.15,0-6.05-0.46-14.58-1.37l-1.9-0.2l0.06-0.25
			c-0.19-0.07-0.38-0.15-0.56-0.24c-3.49,2.05-7.38,3.08-11.58,3.08c-1.55,0-3.15-0.14-4.75-0.43c-3.91-0.69-7.39-1.98-10.36-3.82
			l-0.83,0.12l-0.14,0.02c-16.72,2.72-25.98,4.04-28.3,4.04c-3.52,0-5.88-1.89-7.05-4.15c-3.67,2.33-7.98,3.51-12.84,3.51
			c-5.94,0-11.2-1.54-15.32-4.46c-2.76,2.37-7.09,4.89-13.33,5.39c-0.62,0.05-1.26,0.08-1.9,0.08c-6.12,0-11.99-2.27-16.54-6.39
			c-5.06-4.58-8.05-11.02-8.66-18.63C1,39.03,4.43,32.66,7.46,29.14c3.81-4.43,9.27-7.14,15.39-7.63c0.49-0.04,0.98-0.06,1.46-0.06
			c0.47,0,0.93,0.02,1.4,0.05c1.6-1.22,3.71-1.83,6.28-1.83l0.64,0c2.65,0,3.73-0.22,4.17-0.38V8.88c0-2.69,1.96-4.65,4.66-4.65
			h0.97c1.29,0,2.18,0.64,2.72,1.03c0.03,0.02,0.06,0.04,0.09,0.06c0.17-0.08,0.38-0.18,0.54-0.26c0.8-0.39,1.71-0.84,2.68-0.84
			h1.08c0.45,0,0.9,0.07,1.33,0.2c0.52-0.15,1.08-0.23,1.68-0.23h0.12c2.39,0,4.17,1.25,4.83,3.26c0.76-0.12,1.63-0.23,2.35-0.23
			c1.75,0,3.28,0.43,4.51,1.25c0.74-0.49,1.58-0.84,2.51-1.04c0.38-2.19,2.16-3.71,4.5-3.71h0.93c2.35,0,4.13,1.5,4.52,3.68
			c0.6-0.12,1.24-0.18,1.9-0.18c1.61,0,3.09,0.37,4.33,1.07c0.18-0.1,0.37-0.19,0.57-0.27l0.12-0.05c1.24-0.46,2.74-0.71,4.45-0.76
			l0.65,0c0.79,0,1.55,0.18,2.21,0.52c0.97-0.35,2.03-0.52,3.17-0.52c1.68,0,3.23,0.43,4.5,1.22c1.28-0.8,2.85-1.22,4.6-1.22
			c1.64,0,3.14,0.38,4.39,1.11c0.16-0.09,0.34-0.16,0.51-0.24c1.46-0.59,3.04-0.87,4.86-0.87c1.1,0,2.11,0.17,3.02,0.5
			c0.77-1.4,2.26-2.27,4.02-2.27H121c1.77,0,3.26,0.87,4.03,2.28c0.09,0.03,0.18,0.06,0.27,0.1c1.15-0.36,2.49-0.57,4.01-0.61
			l0.64,0c0.6,0,1.18,0.1,1.71,0.3c0.23-0.03,0.47-0.05,0.71-0.05h0.93c0.84,0,1.63,0.2,2.3,0.57c0.68-0.37,1.47-0.57,2.31-0.57
			h0.91c0.78,0,1.52,0.18,2.18,0.51c1.32-0.5,2.78-0.76,4.32-0.76c0.85,0,1.63,0.1,2.34,0.3c0.88-0.2,1.78-0.3,2.74-0.3
			c4.42,0,7.39,2.99,7.39,7.44v5.13c0,0.76-0.27,1.44-0.64,2.03c2.92,0.36,6.04,1.01,9.03,2.45c0.45,0.22,0.89,0.45,1.32,0.71
			c3.2-2.57,7.29-4.09,11.92-4.41c0.38-0.03,1.06-0.04,1.36-0.05l4.82-0.83l0.06-0.01c0.55-0.06,2.5-0.24,4.73-0.24
			c2.92,0,5.24,0.31,7.11,0.96c2.79,0.95,4.71,3.32,5.12,6.35c0.04,0.32,0.08,0.68,0.1,1.11c0.03,0.5,0.05,1.18,0.06,2.07
			c0.02,1.43,0.02,3.18,0.02,5.16c0,1.57,0,4.15,0.03,4.62c0.14,1.93-0.48,3.87-1.7,5.39c2.79,3.18,4.36,7.09,4.68,11.65
			c0.35,5.04-1.36,9.92-4.82,13.73c-3.25,3.58-7.79,5.82-12.45,6.14c-0.67,0.05-1.34,0.07-1.97,0.07c-1.18,0-2.33-0.08-3.43-0.24
			c-1.02,0.63-2.18,1.02-3.35,1.12l-1.52,0.13l-0.4-0.13c-2.26,0.01-6.94,0.11-6.99,0.11l-6.61,0.15L163.76,74.54z"/>
		<path d="M72.27,4.96c1.71,0,2.9,1.19,2.9,2.9v1.46c0.97-0.55,2.15-0.85,3.51-0.85c1.76,0,3.25,0.53,4.34,1.44
			c0.32-0.31,0.72-0.57,1.2-0.76l0.03-0.01l0.04-0.01c1.07-0.39,2.38-0.61,3.91-0.65l0.03,0h0.03h0.54c0.82,0,1.52,0.28,2.03,0.75
			c0.94-0.49,2.07-0.75,3.35-0.75c1.84,0,3.4,0.6,4.5,1.66c1.1-1.06,2.68-1.66,4.6-1.66c1.79,0,3.29,0.54,4.38,1.48
			c0.31-0.29,0.7-0.54,1.16-0.73c1.25-0.5,2.63-0.75,4.22-0.75c1.36,0,2.53,0.31,3.46,0.89c0.22-0.18,0.47-0.32,0.74-0.43
			c0.26-1.34,1.36-2.23,2.84-2.23H121c1.41,0,2.47,0.81,2.79,2.05c0.53,0.05,1,0.23,1.39,0.5c0.06-0.03,0.12-0.06,0.19-0.09
			l0.03-0.01l0.04-0.01c1.07-0.39,2.38-0.61,3.91-0.65l0.03,0h0.03h0.54c0.57,0,1.08,0.13,1.51,0.38c0.28-0.08,0.58-0.12,0.91-0.12
			h0.93c0.98,0,1.79,0.4,2.3,1.06c0.51-0.67,1.33-1.06,2.32-1.06h0.91c0.82,0,1.51,0.27,2.02,0.74c0.15-0.09,0.31-0.16,0.48-0.24
			c1.2-0.5,2.55-0.76,3.99-0.76c0.86,0,1.61,0.12,2.29,0.37c0.89-0.25,1.81-0.37,2.79-0.37c3.51,0,5.69,2.2,5.69,5.74v5.13
			c0,1.71-3.04,3.34-2.06,3.42c3.54,0.29,7.64,0.76,11.42,2.59c0.8,0.39,1.53,0.82,2.22,1.29c3.04-2.83,7.13-4.49,11.88-4.83
			c0.42-0.03,1.35-0.04,1.4-0.04l4.9-0.84c0.22-0.02,2.21-0.23,4.56-0.23h0c2.72,0,4.87,0.28,6.55,0.86
			c2.18,0.74,3.67,2.59,3.99,4.97c0.04,0.28,0.07,0.59,0.09,0.98c0.03,0.49,0.05,1.14,0.06,2c0.02,1.47,0.02,3.34,0.02,5.14
			c0,1.77,0,4.2,0.03,4.73c0.12,1.66-0.47,3.32-1.62,4.55c-0.24,0.26-0.49,0.49-0.76,0.7c2.73,2.61,4.98,6.3,5.36,11.8
			c0.32,4.58-1.24,9.01-4.38,12.47c-2.96,3.26-7.08,5.3-11.31,5.59c-0.63,0.04-1.25,0.07-1.85,0.07c-1.42,0-2.69-0.13-3.82-0.33
			c-0.92,0.71-2.02,1.12-3.1,1.22l-1.18,0.1l-0.33-0.1c-2.15,0-7.24,0.11-7.29,0.11l-5.13,0.11l-0.51-3.16
			c-1.86-0.13-4.07-0.32-5.94-0.5c-1.36-0.13-3.3-0.33-4.86-0.54c-0.78-0.1-1.39-0.2-1.86-0.3c-0.41-0.08-0.79-0.19-1.14-0.31
			c-0.32,0.05-0.66,0.08-1.02,0.08c-1.34,0-8.57-0.74-14.4-1.36l0,0c-0.79-0.1-1.75-0.39-2.64-0.96c-3.35,2.16-7.26,3.35-11.53,3.35
			c-1.45,0-2.94-0.13-4.45-0.4c-3.94-0.7-7.4-2.02-10.28-3.92l-1.46,0.21l-0.17,0.03c-16.4,2.67-25.83,4.02-28.03,4.02
			c-3.7,0-5.78-2.64-6.13-5.08c0-0.03-0.01-0.06-0.02-0.1c-3.72,2.98-8.38,4.54-13.73,4.54c-6.16,0-11.45-1.72-15.42-4.98
			c-2.6,2.56-6.88,5.39-13.36,5.91c-0.58,0.05-1.17,0.07-1.76,0.07c-5.7,0-11.17-2.11-15.4-5.95c-4.73-4.28-7.53-10.34-8.1-17.51
			c-0.77-9.76,2.42-15.71,5.23-18.99c3.51-4.09,8.57-6.59,14.23-7.04c0.44-0.03,0.89-0.05,1.32-0.05c0.68,0,1.33,0.04,1.94,0.12
			c1.13-1.07,2.92-1.89,5.73-1.89c0.19,0,0.4,0,0.64,0c2.16,0,5.87-0.08,5.87-1.64V8.41c0-1.74,1.22-2.95,2.96-2.95h0.97
			c1.3,0,1.95,1.18,2.7,1.18c0.75,0,2.27-1.18,3.33-1.18h1.08c0.48,0,0.93,0.12,1.32,0.32c0.48-0.23,1.05-0.35,1.69-0.35h0.12
			c2.1,0,3.4,1.3,3.4,3.39v0.15c0,0,0,0,0,0c0.12,0,2.39-0.51,3.76-0.51c1.94,0,3.49,0.64,4.51,1.77c0.96-1.06,2.37-1.69,4.13-1.76
			V7.85c0-1.71,1.18-2.9,2.88-2.9H72.27 M72.27,1.56h-0.93c-2.77,0-5.02,1.63-5.89,4.03c-0.39,0.13-0.77,0.29-1.13,0.47
			C63,5.4,61.47,5.06,59.82,5.06c-0.42,0-0.86,0.03-1.33,0.08c-1.14-1.93-3.24-3.11-5.85-3.11h-0.12c-0.58,0-1.14,0.06-1.68,0.18
			c-0.44-0.1-0.89-0.14-1.34-0.14h-1.08c-1.18,0-2.25,0.44-3.08,0.84c-0.7-0.41-1.69-0.84-2.95-0.84h-0.97
			c-3.63,0-6.36,2.73-6.36,6.35v9.02c-0.55,0.05-1.34,0.09-2.47,0.09l-0.34,0l-0.29,0c-2.69,0-4.95,0.6-6.77,1.8
			c-0.3-0.01-0.6-0.02-0.9-0.02c-0.52,0-1.06,0.02-1.59,0.06c-6.56,0.52-12.44,3.44-16.54,8.21c-3.23,3.77-6.91,10.55-6.04,21.47
			c0.64,8.05,3.82,14.88,9.21,19.76c4.86,4.4,11.14,6.83,17.68,6.83c0.68,0,1.37-0.03,2.04-0.08c5.96-0.47,10.31-2.69,13.29-4.97
			c4.23,2.66,9.43,4.05,15.22,4.05c4.5,0,8.68-1.01,12.3-2.94c1.64,2.08,4.23,3.58,7.58,3.58c1.54,0,6.18-0.42,28.57-4.06l0.15-0.02
			l0.2-0.03c3.04,1.78,6.53,3.03,10.42,3.72c1.7,0.3,3.4,0.45,5.04,0.45c3.98,0,7.82-0.92,11.26-2.67l2.55,0.27
			c12.94,1.38,14.31,1.38,14.76,1.38c0.23,0,0.46-0.01,0.69-0.02c0.26,0.07,0.52,0.13,0.79,0.19c0.58,0.12,1.26,0.23,2.09,0.34
			c1.74,0.24,3.87,0.45,4.99,0.56c1.1,0.11,2.25,0.21,3.34,0.3l0.08,0.52l0.47,2.92l2.96-0.07l5.13-0.11c0.05,0,4.38-0.1,6.69-0.11
			l0.47,0.15l0.68-0.06l1.18-0.1c1.22-0.1,2.44-0.47,3.54-1.05c1,0.12,2.03,0.18,3.09,0.18c0.67,0,1.38-0.02,2.09-0.07
			c5.09-0.36,10.04-2.8,13.59-6.7c3.78-4.16,5.65-9.48,5.26-14.99c-0.31-4.47-1.74-8.37-4.25-11.63c0.95-1.62,1.4-3.51,1.27-5.4
			c-0.03-0.47-0.03-3.07-0.03-4.47v-0.05c0-1.99,0-3.75-0.02-5.19c-0.01-0.93-0.03-1.6-0.06-2.14c-0.03-0.49-0.06-0.89-0.12-1.25
			c-0.5-3.67-2.84-6.56-6.26-7.72c-2.03-0.7-4.54-1.04-7.65-1.04c-2.32,0-4.34,0.19-4.9,0.25l-0.11,0.01l-0.12,0.02l-4.64,0.8
			c-0.36,0.01-0.95,0.02-1.32,0.05c-4.55,0.32-8.63,1.72-11.95,4.09c-0.15-0.07-0.29-0.15-0.44-0.22c-2.49-1.2-5.03-1.88-7.48-2.31
			c0.03-0.21,0.04-0.42,0.04-0.65V14.2c0-5.38-3.74-9.14-9.09-9.14c-0.94,0-1.83,0.08-2.7,0.26c-0.74-0.17-1.54-0.26-2.37-0.26
			c-1.5,0-2.93,0.21-4.26,0.64c-0.7-0.25-1.46-0.38-2.24-0.38h-0.91c-0.81,0-1.59,0.14-2.31,0.41c-0.72-0.27-1.5-0.41-2.31-0.41
			h-0.93c-0.18,0-0.35,0.01-0.52,0.02c-0.61-0.18-1.25-0.27-1.9-0.27h-0.54h-0.03h-0.02l-0.02,0l-0.03,0l-0.02,0l-0.02,0
			c-1.24,0.03-2.38,0.17-3.43,0.4c-1.15-1.36-2.89-2.18-4.84-2.18h-0.91c-1.9,0-3.57,0.75-4.71,2.01c-0.74-0.16-1.52-0.24-2.33-0.24
			c-1.97,0-3.71,0.3-5.32,0.92c-1.33-0.61-2.83-0.92-4.45-0.92c-1.69,0-3.25,0.33-4.6,0.98c-1.34-0.64-2.88-0.98-4.5-0.98
			c-1.08,0-2.11,0.14-3.08,0.41c-0.72-0.27-1.5-0.41-2.3-0.41h-0.54h-0.03h-0.02l-0.02,0l-0.03,0l-0.02,0l-0.02,0
			c-1.89,0.05-3.57,0.34-4.99,0.86L83.1,5.93l-0.02,0.01l-0.03,0.01c-1.31-0.58-2.78-0.89-4.37-0.89c-0.24,0-0.48,0.01-0.72,0.02
			C76.98,2.96,74.85,1.56,72.27,1.56L72.27,1.56z"/>
	</g>
	<g>
		<path class="st0" d="M163.76,72.52c-1.47-0.11-3.1-0.25-4.64-0.4c-1.37-0.13-3.33-0.34-4.93-0.55c-0.8-0.11-1.45-0.21-1.97-0.32
			c-0.33-0.07-0.65-0.15-0.96-0.24c-0.29,0.03-0.57,0.04-0.86,0.04c-0.42,0-1.7,0-14.58-1.37l-1.86-0.2l0.05-0.25
			c-0.2-0.08-0.4-0.16-0.6-0.25c-3.49,2.05-7.39,3.08-11.58,3.08c-1.55,0-3.14-0.14-4.75-0.43c-3.91-0.69-7.39-1.97-10.36-3.82
			l-0.83,0.12l-0.15,0.02c-16.72,2.72-25.98,4.04-28.3,4.04c-3.52,0-5.88-1.89-7.05-4.15c-3.67,2.33-7.98,3.51-12.84,3.51
			c-5.93,0-11.2-1.54-15.32-4.47c-2.76,2.37-7.09,4.89-13.33,5.39c-0.64,0.05-1.27,0.08-1.9,0.08c-6.12,0-11.99-2.27-16.54-6.39
			c-5.06-4.58-8.05-11.02-8.66-18.63C1,37.01,4.43,30.64,7.46,27.12c3.81-4.43,9.27-7.14,15.39-7.63c0.49-0.04,0.98-0.06,1.46-0.06
			c0.46,0,0.93,0.02,1.4,0.05c1.6-1.22,3.71-1.83,6.28-1.83l0.63,0c2.65,0,3.74-0.22,4.18-0.38V6.85c0-2.69,1.96-4.65,4.66-4.65
			h0.97c1.29,0,2.18,0.64,2.72,1.03c0.03,0.02,0.06,0.04,0.09,0.06c0.17-0.08,0.38-0.18,0.54-0.26c0.8-0.39,1.71-0.84,2.68-0.84
			h1.08c0.45,0,0.9,0.07,1.34,0.2c0.52-0.15,1.08-0.23,1.68-0.23h0.12c2.39,0,4.17,1.25,4.83,3.26c0.76-0.12,1.63-0.23,2.35-0.23
			c1.75,0,3.28,0.43,4.51,1.25c0.74-0.49,1.58-0.84,2.51-1.04c0.38-2.19,2.16-3.71,4.5-3.71h0.93c2.35,0,4.13,1.5,4.52,3.68
			c0.6-0.12,1.24-0.18,1.9-0.18c1.61,0,3.09,0.37,4.33,1.07c0.18-0.1,0.37-0.19,0.57-0.27l0.12-0.05c1.24-0.46,2.74-0.71,4.45-0.76
			l0.65,0c0.79,0,1.55,0.18,2.21,0.52c0.97-0.35,2.03-0.52,3.17-0.52c1.68,0,3.23,0.43,4.5,1.22c1.28-0.8,2.85-1.22,4.6-1.22
			c1.64,0,3.14,0.38,4.39,1.11c0.16-0.09,0.34-0.16,0.51-0.24c1.45-0.59,3.04-0.87,4.86-0.87c1.1,0,2.11,0.17,3.02,0.5
			c0.77-1.4,2.26-2.27,4.02-2.27H121c1.77,0,3.26,0.87,4.03,2.28c0.09,0.03,0.18,0.06,0.27,0.1c1.15-0.36,2.49-0.56,4.01-0.61
			l0.65,0c0.6,0,1.18,0.1,1.71,0.3c0.23-0.03,0.47-0.05,0.71-0.05h0.93c0.84,0,1.63,0.2,2.3,0.57c0.68-0.37,1.47-0.57,2.31-0.57
			h0.91c0.78,0,1.53,0.18,2.18,0.51c1.33-0.5,2.78-0.76,4.32-0.76c0.85,0,1.62,0.1,2.34,0.3c0.88-0.2,1.78-0.3,2.74-0.3
			c4.42,0,7.39,2.99,7.39,7.44v5.13c0,0.76-0.27,1.44-0.64,2.02c2.92,0.36,6.04,1.01,9.03,2.45c0.45,0.22,0.89,0.45,1.32,0.71
			c3.2-2.57,7.29-4.09,11.92-4.41c0.38-0.03,1.06-0.04,1.36-0.05l4.82-0.83l0.05-0.01c0.54-0.06,2.46-0.24,4.74-0.24
			c2.92,0,5.24,0.31,7.11,0.96c2.79,0.95,4.71,3.32,5.12,6.35c0.04,0.32,0.08,0.68,0.1,1.12c0.03,0.5,0.05,1.18,0.06,2.06
			c0.02,1.43,0.02,3.19,0.02,5.16c0,1.57,0,4.15,0.03,4.62c0.14,1.93-0.48,3.87-1.7,5.39c2.79,3.18,4.36,7.09,4.68,11.65
			c0.35,5.04-1.36,9.92-4.82,13.73c-3.25,3.58-7.79,5.82-12.45,6.14c-0.67,0.05-1.33,0.07-1.97,0.07c-1.18,0-2.33-0.08-3.43-0.25
			c-1.02,0.63-2.18,1.02-3.35,1.12l-1.52,0.13l-0.4-0.13c-1.87,0.01-5.42,0.08-6.91,0.11l-6.69,0.15L163.76,72.52z"/>
		<path d="M72.27,3.4c1.71,0,2.9,1.19,2.9,2.9v1.46c0.97-0.55,2.15-0.85,3.51-0.85c1.76,0,3.25,0.53,4.34,1.44
			c0.32-0.31,0.72-0.57,1.2-0.76l0.03-0.01l0.04-0.01c1.07-0.39,2.38-0.61,3.91-0.65h0.03h0.03h0.54c0.82,0,1.52,0.28,2.03,0.75
			c0.94-0.49,2.07-0.75,3.35-0.75c1.84,0,3.4,0.6,4.5,1.66c1.1-1.06,2.68-1.66,4.6-1.66c1.79,0,3.29,0.54,4.38,1.48
			c0.31-0.29,0.7-0.54,1.16-0.73c1.25-0.5,2.63-0.75,4.22-0.75c1.36,0,2.53,0.31,3.46,0.89c0.22-0.18,0.47-0.33,0.74-0.43
			c0.26-1.34,1.36-2.23,2.84-2.23H121c1.41,0,2.47,0.81,2.79,2.05c0.53,0.05,1,0.23,1.39,0.5c0.06-0.03,0.12-0.06,0.19-0.09
			l0.03-0.01l0.04-0.01c1.07-0.39,2.38-0.61,3.91-0.65h0.03h0.03h0.54c0.57,0,1.08,0.14,1.51,0.38c0.28-0.08,0.58-0.12,0.91-0.12
			h0.93c0.98,0,1.79,0.4,2.3,1.06c0.51-0.67,1.33-1.06,2.32-1.06h0.91c0.82,0,1.51,0.27,2.02,0.74c0.15-0.09,0.31-0.16,0.48-0.24
			c1.2-0.5,2.55-0.76,3.99-0.76c0.86,0,1.61,0.12,2.29,0.37c0.89-0.25,1.81-0.37,2.79-0.37c3.51,0,5.69,2.2,5.69,5.74v5.13
			c0,1.71-0.2,3.34,0.79,3.42c3.54,0.29,4.79,0.76,8.57,2.59c0.8,0.39,1.53,0.82,2.22,1.29c3.04-2.83,7.13-4.49,11.88-4.83
			c0.42-0.03,1.35-0.04,1.4-0.04l4.9-0.84c0.22-0.02,2.21-0.23,4.56-0.23h0c2.72,0,4.87,0.28,6.55,0.86
			c2.18,0.74,3.67,2.59,3.99,4.97c0.04,0.28,0.07,0.59,0.09,0.98c0.03,0.49,0.05,1.14,0.06,1.99c0.02,1.48,0.02,3.34,0.02,5.14
			c0,1.77,0,4.2,0.03,4.73c0.12,1.66-0.47,3.32-1.62,4.55c-0.24,0.26-0.49,0.49-0.76,0.7c2.73,2.61,4.98,6.3,5.36,11.79
			c0.32,4.58-1.24,9.01-4.38,12.47c-2.96,3.26-7.08,5.3-11.31,5.59c-0.63,0.04-1.25,0.07-1.85,0.07c-1.42,0-2.69-0.13-3.82-0.33
			c-0.92,0.71-2.02,1.12-3.1,1.22l-1.18,0.1l-0.33-0.1c-2.15,0-7.24,0.11-7.29,0.11l-5.13,0.11l-0.51-3.16
			c-1.86-0.13-4.07-0.32-5.94-0.5c-1.36-0.13-3.3-0.33-4.86-0.54c-0.78-0.1-1.39-0.2-1.86-0.3c-0.41-0.08-0.79-0.19-1.14-0.31
			c-0.32,0.05-0.66,0.08-1.02,0.08c-1.34,0-8.57-0.74-14.4-1.36l0,0c-0.79-0.1-1.75-0.39-2.64-0.96c-3.35,2.16-7.26,3.35-11.53,3.35
			c-1.45,0-2.94-0.13-4.45-0.4c-3.94-0.7-7.4-2.02-10.28-3.92l-1.46,0.21l-0.17,0.03c-16.4,2.67-25.83,4.02-28.03,4.02
			c-3.7,0-5.78-2.64-6.13-5.08c0-0.03-0.01-0.06-0.02-0.1c-3.72,2.98-8.38,4.54-13.73,4.54c-6.16,0-11.45-1.72-15.42-4.98
			c-2.6,2.56-6.88,5.39-13.36,5.91c-0.58,0.05-1.17,0.07-1.76,0.07c-5.7,0-11.17-2.11-15.4-5.95c-4.73-4.28-7.53-10.34-8.1-17.51
			C2.74,37.45,5.93,31.5,8.74,28.23c3.51-4.09,8.57-6.59,14.23-7.04c0.44-0.03,0.89-0.05,1.32-0.05c0.68,0,1.33,0.04,1.94,0.12
			c1.13-1.07,2.92-1.89,5.73-1.89c0.19,0,0.4,0,0.63,0c2.16,0,5.87-0.08,5.87-1.64V6.85c0-1.74,1.22-2.95,2.96-2.95h0.97
			c1.3,0,1.95,1.18,2.7,1.18c0.75,0,2.27-1.18,3.33-1.18h1.08c0.48,0,0.93,0.12,1.32,0.32c0.48-0.23,1.05-0.35,1.69-0.35h0.12
			c2.1,0,3.4,1.3,3.4,3.39v0.15c0,0,0,0,0,0c0.11,0,2.39-0.51,3.76-0.51c1.94,0,3.49,0.64,4.51,1.77c0.96-1.06,2.37-1.69,4.13-1.76
			V6.29c0-1.71,1.18-2.9,2.88-2.9H72.27 M72.27,0h-0.93c-2.77,0-5.02,1.62-5.89,4.03c-0.39,0.13-0.77,0.29-1.13,0.47
			C63,3.85,61.47,3.5,59.82,3.5c-0.42,0-0.86,0.03-1.33,0.08c-1.14-1.93-3.24-3.11-5.85-3.11h-0.12c-0.58,0-1.14,0.06-1.68,0.18
			c-0.44-0.1-0.89-0.14-1.34-0.14h-1.08c-1.18,0-2.25,0.44-3.08,0.84c-0.7-0.41-1.69-0.84-2.95-0.84h-0.97
			c-3.63,0-6.36,2.73-6.36,6.35v9.02c-0.55,0.05-1.34,0.09-2.48,0.09l-0.34,0l-0.29,0c-2.69,0-4.95,0.6-6.77,1.8
			c-0.3-0.01-0.6-0.02-0.9-0.02c-0.52,0-1.05,0.02-1.59,0.06c-6.57,0.52-12.44,3.44-16.55,8.21c-3.23,3.77-6.91,10.55-6.04,21.47
			c0.64,8.05,3.82,14.88,9.21,19.76c4.86,4.4,11.14,6.83,17.68,6.83c0.67,0,1.35-0.03,2.03-0.08c5.97-0.47,10.32-2.69,13.29-4.97
			c4.23,2.66,9.43,4.06,15.22,4.06c4.5,0,8.68-1.01,12.3-2.94c1.64,2.08,4.23,3.58,7.58,3.58c1.54,0,6.18-0.42,28.57-4.06l0.15-0.02
			l0.2-0.03c3.04,1.78,6.54,3.03,10.43,3.72c1.7,0.3,3.4,0.45,5.04,0.45c3.97,0,7.82-0.92,11.26-2.67l2.55,0.27
			c12.96,1.38,14.27,1.38,14.76,1.38c0.23,0,0.46-0.01,0.69-0.02c0.26,0.07,0.52,0.13,0.79,0.19c0.56,0.11,1.24,0.22,2.08,0.34
			c1.61,0.22,3.6,0.43,4.99,0.56c1.1,0.11,2.24,0.21,3.34,0.3l0.08,0.52l0.47,2.92l2.96-0.06l5.13-0.11l0.08,0
			c1.42-0.03,4.7-0.1,6.61-0.11l0.47,0.15l0.67-0.06l1.18-0.1c1.22-0.1,2.44-0.47,3.54-1.05c1,0.12,2.03,0.18,3.09,0.18
			c0.68,0,1.38-0.02,2.09-0.07c5.09-0.36,10.04-2.8,13.59-6.7c3.78-4.16,5.65-9.48,5.26-14.99c-0.31-4.47-1.74-8.36-4.25-11.63
			c0.95-1.62,1.4-3.51,1.27-5.4c-0.03-0.47-0.03-3.07-0.03-4.47v-0.05c0-1.98,0-3.75-0.02-5.19c-0.01-0.93-0.03-1.6-0.06-2.14
			c-0.03-0.49-0.06-0.88-0.12-1.25c-0.5-3.67-2.84-6.56-6.26-7.72c-2.03-0.7-4.54-1.04-7.64-1.04c-2.36,0-4.36,0.19-4.91,0.25
			l-0.11,0.01L185.27,16l-4.64,0.8c-0.36,0.01-0.95,0.02-1.32,0.05c-4.55,0.32-8.63,1.72-11.95,4.09c-0.14-0.07-0.29-0.15-0.44-0.22
			c-2.49-1.2-5.03-1.88-7.48-2.31c0.03-0.21,0.04-0.42,0.04-0.65v-5.13c0-5.38-3.74-9.14-9.09-9.14c-0.94,0-1.83,0.08-2.7,0.26
			c-0.74-0.17-1.54-0.26-2.37-0.26c-1.5,0-2.92,0.21-4.26,0.64c-0.7-0.25-1.46-0.38-2.24-0.38h-0.91c-0.81,0-1.59,0.14-2.31,0.41
			c-0.72-0.27-1.5-0.41-2.31-0.41h-0.93c-0.18,0-0.35,0.01-0.52,0.02c-0.61-0.18-1.25-0.27-1.9-0.27h-0.54h-0.03h-0.03h-0.05
			l-0.05,0c-1.24,0.03-2.38,0.17-3.42,0.4c-1.15-1.36-2.89-2.18-4.84-2.18h-0.91c-1.9,0-3.57,0.75-4.71,2.01
			c-0.74-0.16-1.51-0.24-2.33-0.24c-1.97,0-3.71,0.3-5.31,0.92c-1.33-0.61-2.83-0.92-4.45-0.92c-1.69,0-3.25,0.33-4.6,0.98
			c-1.34-0.64-2.88-0.98-4.5-0.98c-1.08,0-2.11,0.14-3.08,0.41c-0.72-0.27-1.5-0.41-2.3-0.41h-0.54h-0.03H88.2h-0.05l-0.05,0
			c-1.89,0.05-3.57,0.34-4.98,0.86L83.1,4.37l-0.02,0.01l-0.03,0.01c-1.31-0.59-2.78-0.89-4.37-0.89c-0.24,0-0.48,0.01-0.72,0.02
			C76.98,1.4,74.85,0,72.27,0L72.27,0z"/>
	</g>
	<g>
		<linearGradient id="SVGID_1_" gradientUnits="userSpaceOnUse" x1="9.2772" y1="11.1902" x2="192.6618" y2="16.7287">
			<stop  offset="0" style="stop-color:#95C943"/>
			<stop  offset="0.2554" style="stop-color:#3EA9DD"/>
			<stop  offset="0.6619" style="stop-color:#E824A7"/>
			<stop  offset="1" style="stop-color:#F59236"/>
		</linearGradient>
		<path class="st1" d="M47.99,13.51c-0.46-0.91-1.04-1.55-1.72-1.91l3.65-4.66c0.15-0.2,0.19-0.4,0.11-0.57
			c-0.05-0.1-0.18-0.25-0.51-0.25h-1.08c-0.7,0-0.95,0.07-1.28,0.54l-3.35,4.41h-0.14h-0.51V6.85c0-0.51-0.23-0.74-0.74-0.74h-0.97
			c-0.52,0-0.75,0.23-0.75,0.74v10.86c0,0.51,0.23,0.74,0.75,0.74h0.97c0.51,0,0.74-0.23,0.74-0.74v-4.39h0.7
			c0.53,0,0.94,0.07,1.19,0.22c0.22,0.15,0.46,0.45,0.68,0.88l1.71,3.43c0.25,0.51,0.54,0.6,1.3,0.6h0.98c0.25,0,0.41-0.07,0.5-0.21
			c0.09-0.15,0.07-0.35-0.07-0.61L47.99,13.51z"/>
		<linearGradient id="SVGID_2_" gradientUnits="userSpaceOnUse" x1="9.4328" y1="6.0399" x2="192.8174" y2="11.5784">
			<stop  offset="0" style="stop-color:#95C943"/>
			<stop  offset="0.2554" style="stop-color:#3EA9DD"/>
			<stop  offset="0.6619" style="stop-color:#E824A7"/>
			<stop  offset="1" style="stop-color:#F59236"/>
		</linearGradient>
		<path class="st2" d="M52.65,6.08h-0.12c-0.87,0-1.19,0.32-1.19,1.18v0.15c0,0.87,0.32,1.19,1.19,1.19h0.12
			c0.88,0,1.19-0.31,1.19-1.19V7.26C53.84,6.4,53.52,6.08,52.65,6.08z"/>
		<linearGradient id="SVGID_3_" gradientUnits="userSpaceOnUse" x1="9.2347" y1="12.5985" x2="192.6193" y2="18.137">
			<stop  offset="0" style="stop-color:#95C943"/>
			<stop  offset="0.2554" style="stop-color:#3EA9DD"/>
			<stop  offset="0.6619" style="stop-color:#E824A7"/>
			<stop  offset="1" style="stop-color:#F59236"/>
		</linearGradient>
		<path class="st3" d="M53.05,9.36h-0.93c-0.48,0-0.67,0.19-0.67,0.67v7.73c0,0.49,0.19,0.69,0.67,0.69h0.93
			c0.48,0,0.69-0.21,0.69-0.69v-7.73C53.74,9.56,53.54,9.36,53.05,9.36z"/>
		<linearGradient id="SVGID_4_" gradientUnits="userSpaceOnUse" x1="9.2435" y1="12.3046" x2="192.6282" y2="17.8431">
			<stop  offset="0" style="stop-color:#95C943"/>
			<stop  offset="0.2554" style="stop-color:#3EA9DD"/>
			<stop  offset="0.6619" style="stop-color:#E824A7"/>
			<stop  offset="1" style="stop-color:#F59236"/>
		</linearGradient>
		<path class="st4" d="M59.82,9.11c-1.31,0-2.41,0.19-3.39,0.59c-0.59,0.24-0.76,0.49-0.76,1.12v6.95c0,0.48,0.21,0.69,0.69,0.69
			h0.93c0.48,0,0.67-0.2,0.67-0.69v-6.31c0-0.01,0-0.01,0.01-0.02c0.5-0.14,1.03-0.21,1.57-0.21c1.15,0,1.68,0.48,1.68,1.5v5.04
			c0,0.49,0.2,0.69,0.67,0.69h0.93c0.48,0,0.69-0.21,0.69-0.69v-5.09C63.5,10.34,62.23,9.11,59.82,9.11z"/>
		<linearGradient id="SVGID_5_" gradientUnits="userSpaceOnUse" x1="9.3039" y1="10.3063" x2="192.6885" y2="15.8447">
			<stop  offset="0" style="stop-color:#95C943"/>
			<stop  offset="0.2554" style="stop-color:#3EA9DD"/>
			<stop  offset="0.6619" style="stop-color:#E824A7"/>
			<stop  offset="1" style="stop-color:#F59236"/>
		</linearGradient>
		<path class="st5" d="M72.27,5.61h-0.93c-0.48,0-0.67,0.2-0.67,0.69v3c-0.73-0.13-1.34-0.19-1.85-0.19c-2.42,0-3.7,1.28-3.7,3.7
			v2.32c0,2.38,1.29,3.58,3.83,3.58c1.14,0,2.23-0.19,3.22-0.55c0.62-0.25,0.78-0.48,0.78-1.08V6.29
			C72.96,5.81,72.75,5.61,72.27,5.61z M69.14,16.59c-1.18,0-1.73-0.49-1.73-1.53v-2.2c0-1.11,0.57-1.63,1.78-1.63
			c0.4,0,0.9,0.06,1.48,0.19v4.96c0,0.01,0,0.02-0.03,0.03C70.2,16.53,69.7,16.59,69.14,16.59z"/>
		<linearGradient id="SVGID_6_" gradientUnits="userSpaceOnUse" x1="9.2584" y1="11.8118" x2="192.6431" y2="17.3503">
			<stop  offset="0" style="stop-color:#95C943"/>
			<stop  offset="0.2554" style="stop-color:#3EA9DD"/>
			<stop  offset="0.6619" style="stop-color:#E824A7"/>
			<stop  offset="1" style="stop-color:#F59236"/>
		</linearGradient>
		<path class="st6" d="M78.68,9.11c-2.64,0-4.09,1.36-4.09,3.82v2c0,2.44,1.44,3.78,4.05,3.78c1.83,0,3.11-0.57,3.79-1.7
			c0.16-0.24,0.21-0.45,0.15-0.64c-0.05-0.18-0.19-0.33-0.43-0.44l-0.58-0.32c-0.2-0.11-0.35-0.15-0.48-0.15
			c-0.27,0-0.45,0.2-0.59,0.41c-0.37,0.56-0.98,0.83-1.86,0.83c-0.81,0-1.77-0.27-1.77-1.53V14.7h4.95c0.6,0,0.92-0.32,0.92-0.89
			v-1.03C82.75,10.51,81.19,9.11,78.68,9.11z M76.88,12.66c0-1.29,0.98-1.56,1.8-1.56c1.17,0,1.78,0.54,1.78,1.56v0.21h-3.58V12.66z
			"/>
		<linearGradient id="SVGID_7_" gradientUnits="userSpaceOnUse" x1="9.2698" y1="11.4367" x2="192.6544" y2="16.9752">
			<stop  offset="0" style="stop-color:#95C943"/>
			<stop  offset="0.2554" style="stop-color:#3EA9DD"/>
			<stop  offset="0.6619" style="stop-color:#E824A7"/>
			<stop  offset="1" style="stop-color:#F59236"/>
		</linearGradient>
		<path class="st7" d="M88.8,9.11h-0.54c-1.28,0.03-2.36,0.21-3.2,0.52c-0.6,0.24-0.77,0.49-0.77,1.12v7.02
			c0,0.48,0.21,0.69,0.69,0.69h0.93c0.48,0,0.67-0.2,0.67-0.69v-6.29c0-0.02,0-0.03,0-0.04l0,0c0,0,0.01,0,0.03-0.01l0.01,0l0.01,0
			c0.42-0.13,0.95-0.2,1.56-0.2h0.61c0.48,0,0.69-0.21,0.69-0.69V9.8C89.49,9.31,89.29,9.11,88.8,9.11z"/>
		<linearGradient id="SVGID_8_" gradientUnits="userSpaceOnUse" x1="9.2725" y1="11.3461" x2="192.6571" y2="16.8846">
			<stop  offset="0" style="stop-color:#95C943"/>
			<stop  offset="0.2554" style="stop-color:#3EA9DD"/>
			<stop  offset="0.6619" style="stop-color:#E824A7"/>
			<stop  offset="1" style="stop-color:#F59236"/>
		</linearGradient>
		<path class="st8" d="M97.51,15.38l-0.78-0.22c-0.14-0.05-0.26-0.07-0.36-0.07c-0.35,0-0.49,0.27-0.58,0.51
			c-0.26,0.7-0.83,1.06-1.69,1.06c-0.77,0-1.68-0.26-1.68-1.49v-2.5c0-1.02,0.53-1.5,1.68-1.5c0.88,0,1.43,0.34,1.69,1.03
			c0.09,0.25,0.24,0.53,0.59,0.53c0.1,0,0.22-0.02,0.36-0.08l0.74-0.23c0.5-0.19,0.64-0.47,0.48-0.97
			c-0.51-1.48-1.88-2.33-3.78-2.33c-2.61,0-4.05,1.29-4.05,3.63v2.33c0,2.38,1.35,3.63,3.9,3.63c1.99,0,3.31-0.79,3.92-2.35
			c0.09-0.21,0.1-0.4,0.03-0.56C97.91,15.61,97.75,15.48,97.51,15.38z"/>
		<linearGradient id="SVGID_9_" gradientUnits="userSpaceOnUse" x1="9.2808" y1="11.0696" x2="192.6655" y2="16.608">
			<stop  offset="0" style="stop-color:#95C943"/>
			<stop  offset="0.2554" style="stop-color:#3EA9DD"/>
			<stop  offset="0.6619" style="stop-color:#E824A7"/>
			<stop  offset="1" style="stop-color:#F59236"/>
		</linearGradient>
		<path class="st9" d="M103.28,9.11c-2.64,0-4.09,1.36-4.09,3.82v2c0,2.44,1.44,3.78,4.05,3.78c1.83,0,3.11-0.57,3.79-1.7
			c0.16-0.24,0.21-0.45,0.15-0.64c-0.05-0.18-0.19-0.33-0.43-0.44l-0.59-0.32c-0.2-0.11-0.34-0.15-0.48-0.15
			c-0.27,0-0.45,0.2-0.59,0.41c-0.37,0.56-0.98,0.83-1.86,0.83c-0.81,0-1.77-0.27-1.77-1.53V14.7h4.95c0.6,0,0.92-0.32,0.92-0.89
			v-1.03C107.35,10.51,105.79,9.11,103.28,9.11z M101.48,12.66c0-1.29,0.98-1.56,1.8-1.56c1.17,0,1.78,0.54,1.78,1.56v0.21h-3.58
			V12.66z"/>
		<linearGradient id="SVGID_10_" gradientUnits="userSpaceOnUse" x1="9.2921" y1="10.6986" x2="192.6767" y2="16.2371">
			<stop  offset="0" style="stop-color:#95C943"/>
			<stop  offset="0.2554" style="stop-color:#3EA9DD"/>
			<stop  offset="0.6619" style="stop-color:#E824A7"/>
			<stop  offset="1" style="stop-color:#F59236"/>
		</linearGradient>
		<path class="st10" d="M113.04,9.11c-1.31,0-2.42,0.19-3.39,0.59c-0.59,0.24-0.76,0.49-0.76,1.12v6.95c0,0.48,0.21,0.69,0.69,0.69
			h0.93c0.48,0,0.67-0.2,0.67-0.69v-6.31c0-0.01,0-0.01,0.01-0.02c0.5-0.14,1.03-0.21,1.57-0.21c1.15,0,1.68,0.48,1.68,1.5v5.04
			c0,0.49,0.2,0.69,0.67,0.69h0.93c0.48,0,0.69-0.21,0.69-0.69v-5.09C116.73,10.34,115.45,9.11,113.04,9.11z"/>
		<linearGradient id="SVGID_11_" gradientUnits="userSpaceOnUse" x1="9.3249" y1="9.612" x2="192.7095" y2="15.1505">
			<stop  offset="0" style="stop-color:#95C943"/>
			<stop  offset="0.2554" style="stop-color:#3EA9DD"/>
			<stop  offset="0.6619" style="stop-color:#E824A7"/>
			<stop  offset="1" style="stop-color:#F59236"/>
		</linearGradient>
		<path class="st11" d="M123.45,9.36h-1.77V8c0-0.48-0.2-0.67-0.69-0.67h-0.91c-0.49,0-0.69,0.19-0.69,0.67v1.36h-1
			c-0.48,0-0.67,0.19-0.67,0.67v0.78c0,0.49,0.19,0.69,0.67,0.69h1v3.31c0,1.51,0.31,2.52,0.93,3.1c0.56,0.53,1.49,0.79,2.76,0.79
			c0.11,0,0.23,0,0.35-0.01c0.5-0.02,0.7-0.22,0.7-0.7v-0.78c0-0.49-0.2-0.69-0.7-0.69c-0.71,0-1.18-0.11-1.39-0.33
			c-0.24-0.22-0.36-0.71-0.36-1.46V11.5h1.77c0.48,0,0.69-0.21,0.69-0.69v-0.78C124.14,9.56,123.94,9.36,123.45,9.36z"/>
		<linearGradient id="SVGID_12_" gradientUnits="userSpaceOnUse" x1="9.3073" y1="10.1952" x2="192.6919" y2="15.7336">
			<stop  offset="0" style="stop-color:#95C943"/>
			<stop  offset="0.2554" style="stop-color:#3EA9DD"/>
			<stop  offset="0.6619" style="stop-color:#E824A7"/>
			<stop  offset="1" style="stop-color:#F59236"/>
		</linearGradient>
		<path class="st12" d="M129.95,9.11h-0.54c-1.28,0.03-2.36,0.21-3.2,0.52c-0.6,0.24-0.77,0.49-0.77,1.12v7.02
			c0,0.48,0.21,0.69,0.69,0.69h0.93c0.48,0,0.67-0.2,0.67-0.69v-6.29c0-0.02,0-0.03,0-0.04c0,0,0,0,0,0c0,0,0.01,0,0.03-0.01l0.01,0
			l0.01,0c0.42-0.13,0.95-0.2,1.56-0.2h0.61c0.48,0,0.69-0.21,0.69-0.69V9.8C130.63,9.31,130.43,9.11,129.95,9.11z"/>
		<linearGradient id="SVGID_13_" gradientUnits="userSpaceOnUse" x1="9.3078" y1="10.1764" x2="192.6924" y2="15.7149">
			<stop  offset="0" style="stop-color:#95C943"/>
			<stop  offset="0.2554" style="stop-color:#3EA9DD"/>
			<stop  offset="0.6619" style="stop-color:#E824A7"/>
			<stop  offset="1" style="stop-color:#F59236"/>
		</linearGradient>
		<path class="st13" d="M138.83,9.36h-0.91c-0.49,0-0.69,0.19-0.69,0.67v6.23c0,0.08-0.02,0.11-0.08,0.13
			c-0.44,0.13-0.93,0.19-1.5,0.19c-1.15,0-1.68-0.48-1.68-1.51v-5.04c0-0.48-0.19-0.67-0.67-0.67h-0.93c-0.49,0-0.69,0.19-0.69,0.67
			v5.11c0,2.33,1.28,3.56,3.7,3.56c1.21,0,2.35-0.2,3.38-0.6c0.6-0.24,0.76-0.48,0.76-1.1v-6.97
			C139.52,9.56,139.32,9.36,138.83,9.36z"/>
		<linearGradient id="SVGID_14_" gradientUnits="userSpaceOnUse" x1="9.3239" y1="9.6443" x2="192.7085" y2="15.1827">
			<stop  offset="0" style="stop-color:#95C943"/>
			<stop  offset="0.2554" style="stop-color:#3EA9DD"/>
			<stop  offset="0.6619" style="stop-color:#E824A7"/>
			<stop  offset="1" style="stop-color:#F59236"/>
		</linearGradient>
		<path class="st14" d="M150.4,9.11c-1.05,0-2.02,0.18-2.96,0.54c-0.53-0.36-1.23-0.54-2.12-0.54c-1.15,0-2.21,0.2-3.14,0.59
			c-0.58,0.24-0.76,0.5-0.76,1.11v6.95c0,0.48,0.21,0.69,0.69,0.69h0.93c0.48,0,0.67-0.2,0.67-0.69v-6.29
			c0-0.03,0.01-0.04,0.03-0.05c0.4-0.13,0.83-0.19,1.29-0.19c1.02,0,1.49,0.47,1.49,1.48v5.06c0,0.48,0.21,0.69,0.69,0.69h0.91
			c0.48,0,0.69-0.21,0.69-0.69v-5.13c0-0.45-0.05-0.84-0.14-1.17c0.52-0.17,0.99-0.25,1.44-0.25c1.01,0,1.48,0.47,1.48,1.48v5.06
			c0,0.48,0.21,0.69,0.69,0.69h0.93c0.48,0,0.67-0.2,0.67-0.69v-5.13C153.88,10.3,152.71,9.11,150.4,9.11z"/>
	</g>
	<g>
		<linearGradient id="SVGID_15_" gradientUnits="userSpaceOnUse" x1="8.273" y1="44.4405" x2="191.6576" y2="49.9789">
			<stop  offset="0" style="stop-color:#95C943"/>
			<stop  offset="0.2554" style="stop-color:#3EA9DD"/>
			<stop  offset="0.6619" style="stop-color:#E824A7"/>
			<stop  offset="1" style="stop-color:#F59236"/>
		</linearGradient>
		<path class="st15" d="M38.33,26.65c0.39,0.24,0.79,13.3,0.79,13.3l-8.5,1.75c0,0-1.5-5.41-6.3-5.03
			c-2.77,0.22-4.89,3.34-4.42,9.26c0.5,6.29,4.46,8.18,7.12,7.97c3.41-0.27,5.74-3.35,6.22-4.14c2.6,2.32,7.51,6.06,7.51,6.06
			s-2.73,8.16-12.87,8.96c-8.32,0.66-17.9-5.07-18.92-17.98c-1.07-13.49,6.59-19.09,14.05-19.68c4.05-0.32,6.47,1.74,6.47,1.74
			s0.29-2.63,0.34-3.19C30.13,24.91,35.92,25.39,38.33,26.65z"/>
		<linearGradient id="SVGID_16_" gradientUnits="userSpaceOnUse" x1="8.2998" y1="43.5539" x2="191.6844" y2="49.0924">
			<stop  offset="0" style="stop-color:#95C943"/>
			<stop  offset="0.2554" style="stop-color:#3EA9DD"/>
			<stop  offset="0.6619" style="stop-color:#E824A7"/>
			<stop  offset="1" style="stop-color:#F59236"/>
		</linearGradient>
		<path class="st16" d="M74.04,43.46c0.75,9.68-3.52,19.38-15.03,20.27c-10.24,0.79-17.95-4.25-19-17.74
			c-1.04-13.5,6.48-18.95,16.05-19.69C65.63,25.57,73.13,31.7,74.04,43.46z M50.67,45.98c0.74,5.93,4.69,7.91,7.89,7.51
			c3.14-0.39,5.67-2.82,4.88-9.16c-0.65-5.22-2.88-9.06-7.14-8.53C51.23,36.44,49.99,40.56,50.67,45.98z"/>
		<linearGradient id="SVGID_17_" gradientUnits="userSpaceOnUse" x1="8.3327" y1="42.4644" x2="191.7173" y2="48.0029">
			<stop  offset="0" style="stop-color:#95C943"/>
			<stop  offset="0.2554" style="stop-color:#3EA9DD"/>
			<stop  offset="0.6619" style="stop-color:#E824A7"/>
			<stop  offset="1" style="stop-color:#F59236"/>
		</linearGradient>
		<path class="st17" d="M90.07,25.01c0.01,0.05,1.49,7.62,1.19,7.77c-0.3,0.15-4.23,1.21-4.23,1.21c0.03,3.86,2.14,20.52,2.19,20.51
			c0.05-0.01,5.35-0.89,5.38-1c0.04-0.11,0.83-6.83,0.8-7.04c-0.03-0.21,6.95-0.21,7.12-0.13c0.17,0.08,2.39,14.14,2.23,14.17
			c-0.16,0.02-27.53,4.5-27.61,3.92c-0.08-0.58-1.31-7.54-1.23-7.66c0.09-0.12,3.5-0.67,3.59-0.79c0.09-0.12-2.11-15.96-2.53-20.99
			c-0.04-0.26-3.14,0.51-3.26,0.48c-0.11-0.04-1.84-7.84-1.36-8.23C72.64,27.02,90.06,24.96,90.07,25.01z"/>
		<linearGradient id="SVGID_18_" gradientUnits="userSpaceOnUse" x1="8.3567" y1="41.6683" x2="191.7413" y2="47.2067">
			<stop  offset="0" style="stop-color:#95C943"/>
			<stop  offset="0.2554" style="stop-color:#3EA9DD"/>
			<stop  offset="0.6619" style="stop-color:#E824A7"/>
			<stop  offset="1" style="stop-color:#F59236"/>
		</linearGradient>
		<path class="st18" d="M139.11,47.83c-1.74,9.86-8.51,18.46-20.24,16.39c-10.43-1.85-16.85-8.87-14.42-22.62
			s11.35-17.27,21.11-15.54C135.32,27.78,141.23,35.84,139.11,47.83z M116.89,44.91c-0.35,6.16,3.29,8.9,6.61,9.09
			c3.26,0.19,6.28-1.8,6.66-8.38c0.31-5.42-1.23-9.73-5.65-9.99C119.23,35.33,117.21,39.28,116.89,44.91z"/>
		<linearGradient id="SVGID_19_" gradientUnits="userSpaceOnUse" x1="8.3742" y1="41.0894" x2="191.7588" y2="46.6279">
			<stop  offset="0" style="stop-color:#95C943"/>
			<stop  offset="0.2554" style="stop-color:#3EA9DD"/>
			<stop  offset="0.6619" style="stop-color:#E824A7"/>
			<stop  offset="1" style="stop-color:#F59236"/>
		</linearGradient>
		<path class="st19" d="M137.39,55.34c0.89,0.07,3.35,0.07,3.38-0.24l1.74-20.87c0,0-3.34-0.17-3.42-0.44c-0.08-0.27,0.7-7.8,0.93-8
			c0.23-0.19,11.02,1.08,13.99,1.32c5.05,0.42,15.09,1.36,14.3,10.83c-0.61,7.34-5.87,9.42-5.87,9.42l4.19,10.73
			c0,0,3.08,0.15,3.07,0.26c-0.01,0.1-0.13,6.54-0.31,6.84c-0.18,0.3-15.69-1.04-15.76-1.52c-0.06-0.48,0.33-6.47,0.64-6.45
			c0.31,0.03,2.4,0.15,2.42-0.11c0.02-0.26-2.78-8.1-2.94-8.11c-0.16-0.01-3.84,0.1-3.99,0.09c-0.16-0.01-0.88,7.37-0.46,7.4
			c0.42,0.04,2.23,0.34,2.22,0.4c0,0.05-0.38,6.47-0.55,6.61c-0.17,0.14-13.89-1.31-13.89-1.31
			C137.07,62.34,136.51,55.27,137.39,55.34z M150.57,41.29c0.33-0.13,6.6,1.34,7-3.45c0.26-3.12-6.42-2.84-6.42-2.84
			S150.56,41.4,150.57,41.29z"/>
		<linearGradient id="SVGID_20_" gradientUnits="userSpaceOnUse" x1="8.3656" y1="41.376" x2="191.7502" y2="46.9145">
			<stop  offset="0" style="stop-color:#95C943"/>
			<stop  offset="0.2554" style="stop-color:#3EA9DD"/>
			<stop  offset="0.6619" style="stop-color:#E824A7"/>
			<stop  offset="1" style="stop-color:#F59236"/>
		</linearGradient>
		<path class="st20" d="M186.95,25.26c0,0,5.76-0.63,8.57,0.35c0.29,0.09,0.09,10.88,0.22,12.66c0.06,0.83-8.61,1.39-8.63,1.16
			c-0.5-3.2-2.48-4.29-4.2-4.17c-1,0.07-3.02,0.71-2.86,2.94c0.14,2,4.39,2.93,8.68,5.09c5.15,2.54,9.52,5.19,10,12.03
			c0.44,6.28-4.67,11.38-10.23,11.77c-5.72,0.4-7.93-1.62-8.83-2.51c-0.03,1.23,0.02,3.46-0.04,3.46c-0.29-0.09-8.42,0.09-8.42,0.09
			c-0.2-1.22-0.9-11.21-1.1-14.1c3.72-1.1,7.54-1.53,8.66-1.45c1.26,3.71,3.68,5.55,5.46,5.42c1.61-0.11,2.99-1.1,2.88-2.77
			c-0.22-3.17-3.85-3.92-7.31-5.52c-5.13-2.27-10.1-4.76-10.66-12.71c-0.39-5.5,3.86-10.32,11.3-10.84
			c3.22-0.23,5.31,0.86,6.32,1.79L186.95,25.26z"/>
	</g>
</g>
</svg>
