<?xml version="1.0" encoding="utf-8"?>
<!-- Generator: Adobe Illustrator 23.1.0, SVG Export Plug-In . SVG Version: 6.00 Build 0)  -->
<svg version="1.1" id="Layer_1" xmlns="http://www.w3.org/2000/svg" xmlns:xlink="http://www.w3.org/1999/xlink" x="0px" y="0px"
	 viewBox="0 0 186.93 34.29" style="enable-background:new 0 0 186.93 34.29;" xml:space="preserve">
<style type="text/css">
	.st0{fill:url(#SVGID_1_);}
	.st1{fill:url(#SVGID_2_);}
	.st2{fill:url(#SVGID_3_);}
	.st3{fill:url(#SVGID_4_);}
	.st4{fill:url(#SVGID_5_);}
	.st5{fill:url(#SVGID_6_);}
	.st6{fill:url(#SVGID_7_);}
	.st7{fill:url(#SVGID_8_);}
	.st8{fill:url(#SVGID_9_);}
	.st9{fill:url(#SVGID_10_);}
	.st10{fill:url(#SVGID_11_);}
	.st11{fill:url(#SVGID_12_);}
</style>
<g>
	<g>
		<linearGradient id="SVGID_1_" gradientUnits="userSpaceOnUse" x1="1.2887" y1="16.0745" x2="186.1668" y2="23.8793">
			<stop  offset="0" style="stop-color:#95C943"/>
			<stop  offset="0.2554" style="stop-color:#3EA9DD"/>
			<stop  offset="0.6619" style="stop-color:#E824A7"/>
			<stop  offset="1" style="stop-color:#F59236"/>
		</linearGradient>
		<path class="st0" d="M1.85,19l-0.01-0.08c-1.18-8.1,3.95-15.62,12.7-16.9c4.27-0.62,7.33,0.09,9.95,1.5
			c0.72,0.39,1.42,1.2,1.58,2.3c0.25,1.71-0.94,3.25-2.65,3.5c-0.85,0.13-1.47-0.12-1.96-0.34c-1.94-1.05-3.88-1.51-6.12-1.18
			c-4.8,0.7-7.68,5.2-6.96,10.08l0.01,0.08c0.71,4.88,4.69,8.46,9.57,7.75c2.64-0.39,4.28-1.46,5.86-3.14
			c0.43-0.48,1.04-0.86,1.77-0.96c1.59-0.23,3.12,0.87,3.35,2.46c0.14,0.98-0.23,1.82-0.73,2.39c-2.24,2.61-5.05,4.4-9.61,5.06
			C10.22,32.74,3.04,27.18,1.85,19z"/>
		<linearGradient id="SVGID_2_" gradientUnits="userSpaceOnUse" x1="1.2889" y1="16.0703" x2="186.1669" y2="23.8752">
			<stop  offset="0" style="stop-color:#95C943"/>
			<stop  offset="0.2554" style="stop-color:#3EA9DD"/>
			<stop  offset="0.6619" style="stop-color:#E824A7"/>
			<stop  offset="1" style="stop-color:#F59236"/>
		</linearGradient>
		<path class="st1" d="M18.84,33.16C9.73,34.49,1.54,28.38,0.2,19.24l-0.01-0.08c-1.37-9.33,4.7-17.41,14.1-18.79
			c4.21-0.62,7.69-0.08,10.97,1.68c1.31,0.72,2.22,2.03,2.44,3.53c0.38,2.59-1.44,5.01-4.05,5.39c-1.23,0.18-2.15-0.13-2.88-0.46
			l-0.11-0.05c-1.76-0.95-3.33-1.26-5.09-1c-3.77,0.55-6.16,4.08-5.56,8.2l0.01,0.08c0.61,4.17,3.91,6.9,7.69,6.34
			c2.33-0.34,3.6-1.26,4.89-2.64c0.7-0.78,1.68-1.32,2.74-1.47c2.52-0.37,4.87,1.36,5.24,3.86c0.19,1.33-0.21,2.68-1.12,3.72
			C26.71,30.75,23.44,32.48,18.84,33.16z M14.77,3.66c-7.53,1.1-12.39,7.56-11.3,15.02l0.01,0.08c1.08,7.42,7.48,12.19,14.87,11.11
			c3.8-0.56,6.36-1.9,8.59-4.5c0.17-0.19,0.42-0.57,0.35-1.07c-0.1-0.66-0.78-1.16-1.47-1.06c-0.39,0.06-0.65,0.29-0.77,0.43
			c-2.05,2.18-4.09,3.27-6.85,3.68c-5.65,0.83-10.57-3.11-11.45-9.15l-0.01-0.08C5.87,12.22,9.54,6.97,15.1,6.16
			c2.46-0.36,4.71,0.06,7.09,1.34c0.33,0.15,0.61,0.24,0.99,0.19c0.81-0.12,1.36-0.83,1.24-1.62c-0.08-0.55-0.45-0.93-0.73-1.09
			C21.04,3.55,18.29,3.14,14.77,3.66z"/>
	</g>
	<g>
		<linearGradient id="SVGID_3_" gradientUnits="userSpaceOnUse" x1="1.3308" y1="15.0772" x2="186.2089" y2="22.8821">
			<stop  offset="0" style="stop-color:#95C943"/>
			<stop  offset="0.2554" style="stop-color:#3EA9DD"/>
			<stop  offset="0.6619" style="stop-color:#E824A7"/>
			<stop  offset="1" style="stop-color:#F59236"/>
		</linearGradient>
		<path class="st2" d="M32.32,17.11v-0.08c0-8.18,6.46-14.89,15.34-14.89c8.88,0,15.26,6.62,15.26,14.81v0.08
			c0,8.18-6.46,14.89-15.34,14.89C38.69,31.92,32.32,25.3,32.32,17.11z M56.29,17.11v-0.08c0-4.93-3.62-9.05-8.72-9.05
			s-8.64,4.03-8.64,8.97v0.08c0,4.94,3.62,9.05,8.72,9.05C52.76,26.08,56.29,22.05,56.29,17.11z"/>
		<linearGradient id="SVGID_4_" gradientUnits="userSpaceOnUse" x1="1.3308" y1="15.0771" x2="186.2089" y2="22.8819">
			<stop  offset="0" style="stop-color:#95C943"/>
			<stop  offset="0.2554" style="stop-color:#3EA9DD"/>
			<stop  offset="0.6619" style="stop-color:#E824A7"/>
			<stop  offset="1" style="stop-color:#F59236"/>
		</linearGradient>
		<path class="st3" d="M47.57,33.58c-9.65,0-16.92-7.08-16.92-16.47v-0.08c0-9.28,7.47-16.55,17-16.55
			c9.65,0,16.92,7.08,16.92,16.47v0.08C64.58,26.31,57.11,33.58,47.57,33.58z M47.66,3.8c-7.8,0-13.68,5.69-13.68,13.23v0.08
			c0,7.49,5.85,13.15,13.6,13.15c7.8,0,13.68-5.69,13.68-13.23v-0.08C61.26,9.45,55.41,3.8,47.66,3.8z M47.66,27.74
			c-5.82,0-10.38-4.7-10.38-10.71v-0.08c0-6.06,4.43-10.63,10.3-10.63c5.82,0,10.38,4.7,10.38,10.71v0.08
			C57.95,23.17,53.53,27.74,47.66,27.74z M47.57,9.64c-4.04,0-6.98,3.07-6.98,7.31v0.08c0,4.21,3.03,7.39,7.06,7.39
			c3.98,0,6.98-3.14,6.98-7.31v-0.08C54.63,12.82,51.6,9.64,47.57,9.64z"/>
	</g>
	<g>
		<linearGradient id="SVGID_5_" gradientUnits="userSpaceOnUse" x1="1.3708" y1="14.1291" x2="186.2489" y2="21.934">
			<stop  offset="0" style="stop-color:#95C943"/>
			<stop  offset="0.2554" style="stop-color:#3EA9DD"/>
			<stop  offset="0.6619" style="stop-color:#E824A7"/>
			<stop  offset="1" style="stop-color:#F59236"/>
		</linearGradient>
		<path class="st4" d="M66.71,6.49c-0.31-1.74,0.82-3.36,2.56-3.68c1.74-0.31,3.36,0.82,3.67,2.56l3.54,19.8l11.54-2.06
			c1.58-0.28,3.06,0.75,3.34,2.33c0.28,1.58-0.75,3.06-2.33,3.34L74.39,31.4c-1.74,0.31-3.36-0.82-3.67-2.56L66.71,6.49z"/>
		<linearGradient id="SVGID_6_" gradientUnits="userSpaceOnUse" x1="1.3708" y1="14.1288" x2="186.2489" y2="21.9337">
			<stop  offset="0" style="stop-color:#95C943"/>
			<stop  offset="0.2554" style="stop-color:#3EA9DD"/>
			<stop  offset="0.6619" style="stop-color:#E824A7"/>
			<stop  offset="1" style="stop-color:#F59236"/>
		</linearGradient>
		<path class="st5" d="M89.33,30.41l-14.66,2.62c-2.66,0.48-5.13-1.24-5.6-3.9l-4-22.35c-0.48-2.66,1.24-5.13,3.9-5.6
			c2.66-0.48,5.13,1.24,5.6,3.9l3.25,18.16l9.9-1.77c2.46-0.44,4.83,1.21,5.27,3.67C93.44,27.6,91.8,29.97,89.33,30.41z M69.56,4.45
			c-0.83,0.15-1.37,0.92-1.22,1.75l4,22.35c0.15,0.83,0.92,1.37,1.75,1.22l14.66-2.62c0.67-0.12,1.1-0.74,0.98-1.42
			c-0.12-0.67-0.74-1.1-1.41-0.98L75.15,27.1L71.31,5.66C71.16,4.83,70.4,4.3,69.56,4.45z"/>
	</g>
	<g>
		<linearGradient id="SVGID_7_" gradientUnits="userSpaceOnUse" x1="1.443" y1="12.4203" x2="186.321" y2="20.2252">
			<stop  offset="0" style="stop-color:#95C943"/>
			<stop  offset="0.2554" style="stop-color:#3EA9DD"/>
			<stop  offset="0.6619" style="stop-color:#E824A7"/>
			<stop  offset="1" style="stop-color:#F59236"/>
		</linearGradient>
		<path class="st6" d="M95.36,17.11v-0.08c0-8.18,6.46-14.89,15.34-14.89c8.88,0,15.26,6.62,15.26,14.81v0.08
			c0,8.18-6.46,14.89-15.34,14.89C101.74,31.92,95.36,25.3,95.36,17.11z M119.34,17.11v-0.08c0-4.93-3.62-9.05-8.72-9.05
			s-8.64,4.03-8.64,8.97v0.08c0,4.94,3.62,9.05,8.72,9.05S119.34,22.05,119.34,17.11z"/>
		<linearGradient id="SVGID_8_" gradientUnits="userSpaceOnUse" x1="1.443" y1="12.4202" x2="186.321" y2="20.2251">
			<stop  offset="0" style="stop-color:#95C943"/>
			<stop  offset="0.2554" style="stop-color:#3EA9DD"/>
			<stop  offset="0.6619" style="stop-color:#E824A7"/>
			<stop  offset="1" style="stop-color:#F59236"/>
		</linearGradient>
		<path class="st7" d="M110.62,33.58c-9.64,0-16.92-7.08-16.92-16.47v-0.08c0-9.28,7.47-16.55,17-16.55
			c9.65,0,16.92,7.08,16.92,16.47v0.08C127.62,26.31,120.15,33.58,110.62,33.58z M110.7,3.8c-7.8,0-13.68,5.69-13.68,13.23v0.08
			c0,7.49,5.85,13.15,13.6,13.15c7.8,0,13.68-5.69,13.68-13.23v-0.08C124.3,9.45,118.46,3.8,110.7,3.8z M110.7,27.74
			c-5.82,0-10.38-4.7-10.38-10.71v-0.08c0-6.06,4.43-10.63,10.3-10.63c5.82,0,10.38,4.7,10.38,10.71v0.08
			C121,23.17,116.57,27.74,110.7,27.74z M110.62,9.64c-4.04,0-6.98,3.07-6.98,7.31v0.08c0,4.21,3.04,7.39,7.06,7.39
			c3.98,0,6.98-3.14,6.98-7.31v-0.08C117.68,12.82,114.64,9.64,110.62,9.64z"/>
	</g>
	<g>
		<linearGradient id="SVGID_9_" gradientUnits="userSpaceOnUse" x1="1.4981" y1="11.1143" x2="186.3762" y2="18.9192">
			<stop  offset="0" style="stop-color:#95C943"/>
			<stop  offset="0.2554" style="stop-color:#3EA9DD"/>
			<stop  offset="0.6619" style="stop-color:#E824A7"/>
			<stop  offset="1" style="stop-color:#F59236"/>
		</linearGradient>
		<path class="st8" d="M133.84,4.45c0.21-1.76,1.77-2.98,3.52-2.77l9.92,1.19c3.63,0.44,6.33,1.8,7.98,3.9
			c1.4,1.78,1.99,4.13,1.67,6.83l-0.01,0.08c-0.54,4.49-3.12,7-6.76,8.01l3.73,5.83c0.52,0.85,0.85,1.55,0.73,2.53
			c-0.21,1.76-1.82,2.72-3.33,2.54c-1.43-0.17-2.28-0.98-2.91-2.01l-5.19-8.49l-5.02-0.6l-0.75,6.25c-0.21,1.76-1.77,2.98-3.52,2.77
			c-1.76-0.21-2.98-1.77-2.77-3.52L133.84,4.45z M145.21,16.71c3.06,0.37,5.02-1.05,5.3-3.46l0.01-0.08
			c0.32-2.7-1.39-4.31-4.45-4.68l-6.25-0.75l-0.99,8.21L145.21,16.71z"/>
		<linearGradient id="SVGID_10_" gradientUnits="userSpaceOnUse" x1="1.4981" y1="11.1143" x2="186.3762" y2="18.9192">
			<stop  offset="0" style="stop-color:#95C943"/>
			<stop  offset="0.2554" style="stop-color:#3EA9DD"/>
			<stop  offset="0.6619" style="stop-color:#E824A7"/>
			<stop  offset="1" style="stop-color:#F59236"/>
		</linearGradient>
		<path class="st9" d="M151.1,34.25c-1.77-0.21-3.12-1.13-4.13-2.79l-4.77-7.8l-2.58-0.31l-0.55,4.6c-0.32,2.69-2.68,4.54-5.37,4.22
			c-2.69-0.32-4.54-2.68-4.22-5.37l2.71-22.54c0.32-2.69,2.68-4.54,5.37-4.22l9.92,1.19c4,0.48,7.14,2.04,9.09,4.52
			c1.69,2.15,2.38,4.93,2.01,8.05l-0.01,0.08c-0.49,4.1-2.52,7.05-5.9,8.65l2.62,4.1c0.58,0.95,1.17,2.07,0.98,3.63
			C155.97,32.77,153.65,34.56,151.1,34.25z M136.72,19.65l7.47,0.9l5.61,9.18c0.48,0.79,0.95,1.14,1.69,1.22
			c0.55,0.07,1.38-0.23,1.48-1.09c0.05-0.43-0.06-0.74-0.5-1.47l-4.93-7.7l2.17-0.6c3.32-0.92,5.13-3.08,5.56-6.61l0.01-0.08
			c0.27-2.22-0.19-4.16-1.32-5.6c-1.41-1.8-3.72-2.9-6.87-3.28l-9.92-1.19c-0.84-0.1-1.57,0.48-1.68,1.32l-2.71,22.54
			c-0.1,0.84,0.48,1.58,1.32,1.68c0.84,0.1,1.58-0.48,1.68-1.32L136.72,19.65z M145.01,18.36L137,17.4l1.38-11.51l7.9,0.95
			c4.06,0.49,6.33,2.99,5.9,6.52l-0.01,0.08C151.76,16.85,148.88,18.83,145.01,18.36z M140.69,14.5l4.72,0.57
			c1.18,0.14,3.21,0.07,3.46-2.01l0.01-0.08c0.08-0.67,0.29-2.44-3-2.83l-4.6-0.55L140.69,14.5z"/>
	</g>
	<g>
		<linearGradient id="SVGID_11_" gradientUnits="userSpaceOnUse" x1="1.5254" y1="10.4679" x2="186.4034" y2="18.2728">
			<stop  offset="0" style="stop-color:#95C943"/>
			<stop  offset="0.2554" style="stop-color:#3EA9DD"/>
			<stop  offset="0.6619" style="stop-color:#E824A7"/>
			<stop  offset="1" style="stop-color:#F59236"/>
		</linearGradient>
		<path class="st10" d="M164.82,30.49c-0.76-0.39-1.39-1.21-1.54-2.18c-0.24-1.63,0.87-3.08,2.49-3.33c0.81-0.12,1.43,0.08,1.87,0.3
			c2.39,1.26,4.9,1.88,7.67,1.46c2.56-0.39,3.95-1.63,3.7-3.3l-0.01-0.08c-0.24-1.59-1.34-2.25-6.28-2.76
			c-5.96-0.6-9.89-1.63-10.75-7.28l-0.01-0.08c-0.78-5.16,2.86-9.21,8.67-10.08c3.46-0.52,6.6-0.08,9.41,1.16
			c0.75,0.3,1.57,1.05,1.76,2.27c0.25,1.63-0.87,3.08-2.49,3.33c-0.61,0.09-1.12,0-1.65-0.21c-2.26-0.91-4.31-1.3-6.27-1.01
			c-2.4,0.36-3.5,1.65-3.29,3.03l0.01,0.08c0.28,1.87,1.59,2.3,6.7,2.82c6,0.63,9.57,2.22,10.32,7.18l0.01,0.08
			c0.85,5.65-2.98,9.47-9.12,10.4C172.29,32.85,168.33,32.29,164.82,30.49z"/>
		<linearGradient id="SVGID_12_" gradientUnits="userSpaceOnUse" x1="1.5255" y1="10.466" x2="186.4035" y2="18.2709">
			<stop  offset="0" style="stop-color:#95C943"/>
			<stop  offset="0.2554" style="stop-color:#3EA9DD"/>
			<stop  offset="0.6619" style="stop-color:#E824A7"/>
			<stop  offset="1" style="stop-color:#F59236"/>
		</linearGradient>
		<path class="st11" d="M176.28,33.93c-4.17,0.63-8.51-0.07-12.21-1.97c-1.27-0.64-2.2-1.95-2.42-3.41
			c-0.38-2.54,1.32-4.83,3.89-5.22c0.99-0.15,1.95,0,2.86,0.46c2.34,1.23,4.46,1.64,6.68,1.31c0.25-0.04,2.46-0.4,2.31-1.41
			l-0.01-0.08c-0.05-0.33-0.13-0.88-4.81-1.35c-5.84-0.59-11.17-1.7-12.22-8.69l-0.01-0.08c-0.91-6.02,3.23-10.94,10.07-11.97
			c3.66-0.55,7.13-0.12,10.3,1.27c1.15,0.47,2.46,1.65,2.75,3.55c0.38,2.54-1.32,4.83-3.89,5.22c-0.86,0.13-1.66,0.03-2.51-0.31
			c-2.13-0.86-3.85-1.15-5.41-0.91c-1.17,0.18-1.97,0.66-1.89,1.14l0.01,0.08c0.08,0.5,0.13,0.89,5.23,1.41
			c5.54,0.59,10.8,2.03,11.79,8.59l0.01,0.08C187.75,28,183.62,32.83,176.28,33.93z M166.02,26.62c-0.73,0.11-1.21,0.73-1.1,1.44
			c0.07,0.47,0.37,0.81,0.64,0.95c3.1,1.59,6.73,2.17,10.22,1.64c5.52-0.83,8.41-4.01,7.73-8.51l-0.01-0.08
			c-0.47-3.12-2.07-5.06-8.85-5.78c-4.44-0.45-7.65-0.78-8.17-4.22l-0.01-0.08c-0.31-2.05,1.02-4.37,4.68-4.92
			c2.14-0.32,4.47,0.04,7.13,1.11c0.3,0.12,0.51,0.15,0.79,0.11c0.73-0.11,1.21-0.73,1.1-1.44c-0.1-0.68-0.59-0.92-0.73-0.98
			l-0.05-0.02c-2.59-1.15-5.45-1.5-8.49-1.04c-4.98,0.75-7.9,4.04-7.28,8.19l0.01,0.08c0.65,4.32,3.27,5.27,9.27,5.88
			c4.24,0.43,7.28,0.98,7.76,4.16l0.01,0.08c0.3,2-0.85,4.55-5.1,5.19c-2.92,0.44-5.76-0.1-8.69-1.64
			C166.61,26.61,166.35,26.57,166.02,26.62z"/>
	</g>
</g>
</svg>
