<?xml version="1.0" encoding="utf-8"?>
<!-- Generator: Adobe Illustrator 23.1.0, SVG Export Plug-In . SVG Version: 6.00 Build 0)  -->
<svg version="1.1" id="Layer_1" xmlns="http://www.w3.org/2000/svg" xmlns:xlink="http://www.w3.org/1999/xlink" x="0px" y="0px"
	 viewBox="0 0 269.53 42.08" style="enable-background:new 0 0 269.53 42.08;" xml:space="preserve">
<style type="text/css">
	.st0{fill:url(#SVGID_1_);}
	.st1{fill:url(#SVGID_2_);}
	.st2{fill:url(#SVGID_3_);}
	.st3{fill:url(#SVGID_4_);}
	.st4{fill:#333334;}
</style>
<g>
	<linearGradient id="SVGID_1_" gradientUnits="userSpaceOnUse" x1="5.2936" y1="40.8717" x2="18.5244" y2="1.9486">
		<stop  offset="0" style="stop-color:#9A318A"/>
		<stop  offset="0.6761" style="stop-color:#9A318A"/>
	</linearGradient>
	<path class="st0" d="M19.51,0.42L19.51,0.42c-3.59-1.3-7.55,0.55-8.85,4.14L0.42,32.82c-1.3,3.59,0.55,7.55,4.14,8.85l0,0
		c3.59,1.3,7.55-0.55,8.85-4.14L23.65,9.27C24.95,5.68,23.1,1.72,19.51,0.42z"/>
	<linearGradient id="SVGID_2_" gradientUnits="userSpaceOnUse" x1="25.2998" y1="41.0124" x2="38.069" y2="5.3201">
		<stop  offset="0" style="stop-color:#9A318A"/>
		<stop  offset="0.6639" style="stop-color:#9A318A"/>
	</linearGradient>
	<path class="st1" d="M39.92,0.42L39.92,0.42c-3.59-1.3-7.55,0.55-8.85,4.14L20.83,32.82c-1.3,3.59,0.55,7.55,4.14,8.85l0,0
		c3.59,1.3,7.55-0.55,8.85-4.14L44.06,9.27C45.36,5.68,43.51,1.72,39.92,0.42z"/>
	<linearGradient id="SVGID_3_" gradientUnits="userSpaceOnUse" x1="35.3889" y1="0.7515" x2="49.8504" y2="41.0592">
		<stop  offset="0.0454" style="stop-color:#C24694"/>
		<stop  offset="0.9981" style="stop-color:#C24694"/>
	</linearGradient>
	<path class="st2" d="M35.19,0.42L35.19,0.42c3.59-1.3,7.55,0.55,8.85,4.14l10.25,28.26c1.3,3.59-0.55,7.55-4.14,8.85l0,0
		c-3.59,1.3-7.55-0.55-8.85-4.14L31.05,9.27C29.75,5.68,31.6,1.72,35.19,0.42z"/>
	<linearGradient id="SVGID_4_" gradientUnits="userSpaceOnUse" x1="15.4942" y1="1.129" x2="29.1865" y2="41.4367">
		<stop  offset="0" style="stop-color:#C24694"/>
		<stop  offset="0.9981" style="stop-color:#C24694"/>
	</linearGradient>
	<path class="st3" d="M14.78,0.42L14.78,0.42c3.59-1.3,7.55,0.55,8.85,4.14l10.25,28.26c1.3,3.59-0.55,7.55-4.14,8.85l0,0
		c-3.59,1.3-7.55-0.55-8.85-4.14L10.64,9.27C9.34,5.68,11.19,1.72,14.78,0.42z"/>
</g>
<g>
	<path class="st4" d="M77.4,40.34v-2.99C75.85,39.06,72.91,41,68.21,41c-6.2,0-8.85-3.71-8.85-8.3V13.61h9.96v14.83
		c0,2.71,1.44,3.76,3.87,3.76c2.21,0,3.38-1.16,4.21-2.1V13.61h9.96v26.72H77.4z"/>
	<path class="st4" d="M92.88,40.34V3.43h9.96v36.9H92.88z"/>
	<path class="st4" d="M110.42,32.59V22.24H106v-8.63h4.43v-7.3h9.96v7.3h5.42v8.63h-5.42v7.47c0,1.38,0.89,2.49,2.21,2.49
		c0.89,0,1.77-0.28,1.99-0.5l1.77,7.52c-1.05,0.94-3.38,1.77-6.75,1.77C113.69,41,110.42,38.18,110.42,32.59z"/>
	<path class="st4" d="M128.9,6.09c0-3.1,2.49-5.59,5.59-5.59c3.1,0,5.59,2.49,5.59,5.59c0,3.1-2.49,5.59-5.59,5.59
		C131.39,11.68,128.9,9.19,128.9,6.09z M129.51,40.34V13.61h9.96v26.72H129.51z"/>
	<path class="st4" d="M147.05,40.34V22.24h-4.43v-8.63h4.43V12.4c0-5.59,4.26-9.52,10.18-9.52c3.1,0,6.47,0.89,8.35,2.88l-3.6,5.53
		c-0.61-0.72-1.33-1.05-2.49-1.05c-1.22,0-2.49,0.83-2.49,2.16v1.22h5.42v8.63H157v18.09H147.05z"/>
	<path class="st4" d="M163.7,26.95c0-7.75,5.92-14,14.55-14c7.86,0,13.89,5.64,13.89,15.05v2.05h-18.15
		c0.55,1.71,2.49,3.38,5.75,3.38c1.49,0,4.81-0.72,6.14-1.88l4.09,6.14c-2.66,2.27-7.41,3.32-11.4,3.32
		C170.23,41,163.7,35.74,163.7,26.95z M178.25,20.53c-3.04,0-4.04,1.99-4.37,3.21h8.8C182.4,22.58,181.46,20.53,178.25,20.53z"/>
	<path class="st4" d="M193.74,26.95c0-7.75,5.92-14,14.55-14c7.86,0,13.89,5.64,13.89,15.05v2.05h-18.15
		c0.55,1.71,2.49,3.38,5.75,3.38c1.49,0,4.81-0.72,6.14-1.88l4.09,6.14c-2.66,2.27-7.41,3.32-11.4,3.32
		C200.27,41,193.74,35.74,193.74,26.95z M208.29,20.53c-3.04,0-4.04,1.99-4.37,3.21h8.8C212.44,22.58,211.5,20.53,208.29,20.53z"/>
	<path class="st4" d="M243.09,40.34v-2.82c-2.27,2.54-4.81,3.49-7.52,3.49c-6.47,0-11.79-4.87-11.79-14.05c0-8.85,5.2-14,11.79-14
		c2.71,0,5.42,0.94,7.52,3.49v-13h9.96v36.9H243.09z M243.09,30.38v-6.86c-0.94-1.16-2.82-1.77-4.15-1.77
		c-2.71,0-4.98,1.88-4.98,5.2c0,3.32,2.27,5.26,4.98,5.26C240.27,32.2,242.15,31.54,243.09,30.38z"/>
	<path class="st4" d="M257.69,35.08c0-3.21,2.71-5.92,5.92-5.92s5.92,2.71,5.92,5.92S266.82,41,263.61,41S257.69,38.29,257.69,35.08
		z"/>
</g>
</svg>
