<?xml version="1.0" encoding="utf-8"?>
<!-- Generator: Adobe Illustrator 23.1.0, SVG Export Plug-In . SVG Version: 6.00 Build 0)  -->
<svg version="1.1" id="Layer_1" xmlns="http://www.w3.org/2000/svg" xmlns:xlink="http://www.w3.org/1999/xlink" x="0px" y="0px"
	 viewBox="0 0 175.07 32.32" style="enable-background:new 0 0 175.07 32.32;" xml:space="preserve">
<style type="text/css">
	.st0{fill:#94C844;}
	.st1{fill:#37A8DF;}
	.st2{fill:#F69226;}
	.st3{fill:#EA1B7D;}
</style>
<g>
	<g>
		<path class="st0" d="M1.55,16.37l0-0.08C1.54,8.64,7.29,2.36,15.56,2.34c4.04-0.01,6.77,1.06,9,2.71c0.62,0.46,1.16,1.3,1.16,2.34
			c0,1.62-1.3,2.89-2.92,2.89c-0.81,0-1.35-0.3-1.77-0.57c-1.66-1.23-3.39-1.91-5.5-1.91c-4.54,0.01-7.8,3.79-7.79,8.4l0,0.08
			c0.01,4.61,3.21,8.45,7.83,8.44c2.5-0.01,4.15-0.78,5.84-2.13c0.46-0.39,1.08-0.66,1.77-0.66c1.5,0,2.77,1.22,2.77,2.72
			c0,0.92-0.46,1.65-0.99,2.12c-2.42,2.12-5.26,3.4-9.57,3.4C7.47,30.2,1.57,24.1,1.55,16.37z"/>
		<path class="st0" d="M15.39,31.73C6.78,31.75,0.02,25.01,0,16.37l0-0.08C-0.02,7.47,6.67,0.81,15.55,0.79
			c3.98-0.01,7.13,0.95,9.93,3.01c1.12,0.84,1.79,2.18,1.79,3.59c0.01,2.45-2,4.44-4.47,4.45c-1.16,0-1.97-0.41-2.6-0.81l-0.09-0.06
			c-1.5-1.11-2.91-1.61-4.57-1.61C11.97,9.36,9.29,12.3,9.3,16.2l0,0.08c0.01,3.94,2.7,6.9,6.27,6.89c2.2,0,3.5-0.69,4.87-1.79
			c0.75-0.63,1.73-0.99,2.73-1c2.38-0.01,4.33,1.91,4.33,4.27c0,1.25-0.56,2.45-1.53,3.3C23,30.56,19.73,31.73,15.39,31.73z
			 M15.56,3.89C8.44,3.91,3.09,9.24,3.1,16.29l0,0.08c0.02,7.01,5.29,12.28,12.28,12.26c3.59-0.01,6.14-0.91,8.55-3.02
			c0.18-0.16,0.47-0.47,0.47-0.95c0-0.63-0.57-1.18-1.22-1.17c-0.37,0-0.64,0.19-0.77,0.3c-2.19,1.75-4.22,2.48-6.83,2.49
			c-5.34,0.01-9.37-4.28-9.38-9.99l0-0.08c-0.01-5.57,4.09-9.94,9.34-9.96c2.32,0,4.35,0.69,6.38,2.18c0.29,0.18,0.53,0.3,0.89,0.3
			c0.77,0,1.37-0.59,1.37-1.33c0-0.52-0.29-0.92-0.54-1.1C21.37,4.63,18.88,3.89,15.56,3.89z"/>
	</g>
	<g>
		<path class="st0" d="M30.18,16.34v-0.08c0-7.65,6.04-13.92,14.34-13.92c8.31,0,14.27,6.19,14.27,13.84v0.08
			c0,7.65-6.04,13.92-14.34,13.92C36.14,30.19,30.18,24,30.18,16.34z M52.6,16.34v-0.08c0-4.61-3.38-8.46-8.15-8.46
			s-8.08,3.77-8.08,8.38v0.08c0,4.61,3.38,8.46,8.15,8.46C49.29,24.73,52.6,20.96,52.6,16.34z"/>
		<path class="st0" d="M44.45,31.74c-9.02,0-15.82-6.62-15.82-15.4v-0.08c0-8.68,6.98-15.47,15.9-15.47
			c9.02,0,15.82,6.62,15.82,15.4v0.08C60.34,24.94,53.36,31.74,44.45,31.74z M44.52,3.9c-7.29,0-12.79,5.32-12.79,12.37v0.08
			c0,7.01,5.47,12.29,12.71,12.29c7.29,0,12.79-5.32,12.79-12.37v-0.08C57.24,9.18,51.77,3.9,44.52,3.9z M44.52,26.28
			c-5.44,0-9.71-4.4-9.71-10.01v-0.08c0-5.66,4.14-9.94,9.63-9.94c5.44,0,9.7,4.4,9.7,10.01v0.08
			C54.15,22.01,50.01,26.28,44.52,26.28z M44.45,9.36c-3.78,0-6.52,2.87-6.52,6.83v0.08c0,3.94,2.84,6.91,6.6,6.91
			c3.72,0,6.52-2.94,6.52-6.83v-0.08C51.05,12.33,48.21,9.36,44.45,9.36z"/>
	</g>
	<g>
		<path class="st1" d="M64.06,4.51c0-1.65,1.31-2.96,2.96-2.96c1.65,0,2.96,1.31,2.96,2.96l-0.01,18.8l10.96,0.01
			c1.5,0,2.69,1.19,2.69,2.69c0,1.5-1.19,2.69-2.69,2.69L67.01,28.7c-1.65,0-2.96-1.31-2.96-2.96L64.06,4.51z"/>
		<path class="st1" d="M80.93,30.26l-13.92-0.01c-2.53,0-4.51-1.98-4.51-4.52l0.01-21.23C62.51,1.98,64.5,0,67.03,0
			c2.53,0,4.51,1.99,4.51,4.52l-0.01,17.25l9.41,0c2.34,0,4.24,1.91,4.24,4.25C85.17,28.36,83.27,30.26,80.93,30.26z M67.02,3.11
			c-0.79,0-1.41,0.62-1.41,1.41L65.6,25.74c0,0.79,0.62,1.41,1.41,1.41l13.92,0.01c0.64,0,1.14-0.5,1.14-1.14
			c0-0.64-0.5-1.14-1.14-1.14l-12.51-0.01l0.01-20.36C68.43,3.72,67.81,3.11,67.02,3.11z"/>
	</g>
	<g>
		<path class="st2" d="M89.13,16.34v-0.08c0-7.65,6.04-13.92,14.34-13.92c8.31,0,14.27,6.19,14.27,13.84v0.08
			c0,7.65-6.04,13.92-14.34,13.92C95.09,30.19,89.13,24,89.13,16.34z M111.55,16.34v-0.08c0-4.61-3.38-8.46-8.15-8.46
			s-8.07,3.77-8.07,8.38v0.08c0,4.61,3.38,8.46,8.15,8.46S111.55,20.96,111.55,16.34z"/>
		<path class="st2" d="M103.39,31.74c-9.02,0-15.82-6.62-15.82-15.4v-0.08c0-8.68,6.98-15.47,15.9-15.47
			c9.02,0,15.82,6.62,15.82,15.4v0.08C119.29,24.94,112.31,31.74,103.39,31.74z M103.47,3.9c-7.29,0-12.79,5.32-12.79,12.37v0.08
			c0,7.01,5.47,12.29,12.71,12.29c7.29,0,12.79-5.32,12.79-12.37v-0.08C116.18,9.18,110.72,3.9,103.47,3.9z M103.47,26.28
			c-5.44,0-9.7-4.4-9.7-10.01v-0.08c0-5.66,4.14-9.94,9.63-9.94c5.44,0,9.7,4.4,9.7,10.01v0.08
			C113.1,22.01,108.96,26.28,103.47,26.28z M103.39,9.36c-3.78,0-6.52,2.87-6.52,6.83v0.08c0,3.94,2.84,6.91,6.6,6.91
			c3.72,0,6.52-2.94,6.52-6.83v-0.08C109.99,12.33,107.16,9.36,103.39,9.36z"/>
	</g>
	<g>
		<path class="st3" d="M123.8,5.72c0.01-1.65,1.32-2.96,2.97-2.95l9.34,0.04c3.42,0.01,6.07,0.99,7.83,2.76
			c1.49,1.51,2.29,3.62,2.28,6.16l0,0.08c-0.02,4.23-2.14,6.84-5.42,8.17l4.09,5.02c0.57,0.73,0.96,1.35,0.95,2.27
			c-0.01,1.65-1.4,2.72-2.82,2.72c-1.35-0.01-2.23-0.66-2.92-1.55l-5.74-7.33l-4.73-0.02l-0.02,5.88c-0.01,1.65-1.32,2.96-2.97,2.95
			c-1.65-0.01-2.96-1.32-2.95-2.97L123.8,5.72z M135.73,15.97c2.86,0.34,4.69-0.99,4.96-3.24l0.01-0.08c0.3-2.52-1.3-4.03-4.16-4.37
			l-5.84-0.7l-0.92,7.67L135.73,15.97z"/>
		<path class="st3" d="M143.14,31.49c-1.66,0-3.02-0.69-4.15-2.12l-5.31-6.7l-2.43,0.01l0.01,4.33c0.01,2.53-1.97,4.52-4.5,4.53
			c-2.53,0.01-4.52-1.97-4.52-4.5L122.18,5.8c-0.01-2.53,1.97-4.52,4.5-4.52l9.34-0.02c3.77-0.01,6.86,1.08,8.95,3.16
			c1.81,1.8,2.77,4.31,2.78,7.24l0,0.08c0.01,3.86-1.53,6.83-4.49,8.7l2.9,3.51c0.65,0.82,1.32,1.78,1.32,3.25
			C147.49,29.56,145.54,31.48,143.14,31.49z M128.14,19.58l7.03-0.02l6.25,7.88c0.54,0.68,1.01,0.95,1.71,0.94
			c0.52,0,1.25-0.37,1.25-1.18c0-0.4-0.14-0.68-0.63-1.31l-5.45-6.58l1.94-0.81c2.97-1.23,4.41-3.45,4.41-6.77l0-0.08
			c-0.01-2.09-0.65-3.84-1.87-5.05c-1.51-1.51-3.79-2.27-6.75-2.26l-9.34,0.02c-0.79,0-1.41,0.62-1.41,1.41l0.05,21.23
			c0,0.79,0.62,1.41,1.41,1.41c0.79,0,1.41-0.62,1.41-1.41L128.14,19.58z M135.68,17.43l-7.55,0.02L128.1,6.62l7.44-0.02
			c3.83-0.01,6.21,2.05,6.22,5.38l0,0.08C141.77,15.26,139.32,17.42,135.68,17.43z M131.23,14.34l4.45-0.01
			c1.11,0,2.98-0.3,2.98-2.26l0-0.08c0-0.63-0.01-2.29-3.11-2.29l-4.33,0.01L131.23,14.34z"/>
	</g>
	<g>
		<path class="st3" d="M153.66,27.8c-0.67-0.45-1.15-1.28-1.17-2.2c-0.04-1.54,1.16-2.76,2.7-2.8c0.77-0.02,1.31,0.24,1.7,0.49
			c2.08,1.45,4.33,2.31,6.94,2.24c2.42-0.06,3.86-1.06,3.82-2.64l0-0.08c-0.04-1.5-0.98-2.24-5.51-3.28
			c-5.46-1.24-8.99-2.65-9.13-7.99l0-0.08c-0.13-4.88,3.71-8.21,9.21-8.36c3.27-0.09,6.13,0.69,8.6,2.16
			c0.66,0.37,1.34,1.16,1.37,2.31c0.04,1.54-1.16,2.76-2.7,2.8c-0.58,0.01-1.04-0.13-1.51-0.38c-1.99-1.1-3.85-1.71-5.7-1.66
			c-2.27,0.06-3.43,1.13-3.4,2.44l0,0.08c0.05,1.77,1.21,2.32,5.9,3.39c5.5,1.28,8.62,3.16,8.74,7.85l0,0.08
			c0.14,5.34-3.86,8.45-9.66,8.6C160.32,30.86,156.71,29.88,153.66,27.8z"/>
		<path class="st3" d="M163.89,32.32c-3.94,0.1-7.89-1.04-11.11-3.23c-1.1-0.74-1.82-2.06-1.85-3.44c-0.06-2.4,1.79-4.33,4.21-4.39
			c0.94-0.02,1.81,0.23,2.6,0.75c2.03,1.41,3.94,2.04,6.05,1.98c0.24-0.01,2.33-0.09,2.3-1.05l0-0.08c-0.01-0.31-0.02-0.83-4.3-1.81
			c-5.35-1.22-10.17-2.86-10.34-9.47l0-0.08c-0.15-5.69,4.26-9.78,10.72-9.95c3.46-0.09,6.63,0.71,9.41,2.37
			c1.01,0.57,2.1,1.81,2.14,3.61c0.06,2.4-1.79,4.33-4.21,4.39c-0.81,0.02-1.54-0.16-2.3-0.58c-1.88-1.04-3.44-1.51-4.91-1.47
			c-1.11,0.03-1.9,0.38-1.89,0.84l0,0.08c0.01,0.47,0.02,0.85,4.69,1.91c5.08,1.18,9.79,3.13,9.95,9.32l0,0.08
			C175.22,28.14,170.84,32.14,163.89,32.32z M155.22,24.35c-0.69,0.02-1.2,0.54-1.19,1.21c0.01,0.44,0.25,0.8,0.48,0.95
			c2.7,1.83,5.99,2.79,9.29,2.7c5.21-0.14,8.26-2.75,8.15-7.01l0-0.08c-0.08-2.95-1.34-4.93-7.54-6.38c-4.07-0.93-7.01-1.6-7.1-4.86
			l0-0.08c-0.05-1.94,1.45-3.94,4.91-4.03c2.02-0.05,4.14,0.55,6.49,1.85c0.26,0.14,0.46,0.2,0.72,0.19
			c0.69-0.02,1.2-0.54,1.19-1.21c-0.02-0.64-0.44-0.92-0.57-0.99l-0.05-0.03c-2.27-1.36-4.88-2.02-7.76-1.94
			c-4.71,0.12-7.8,2.84-7.7,6.76l0,0.08c0.11,4.08,2.42,5.27,7.93,6.52c3.88,0.89,6.64,1.75,6.72,4.75l0,0.08
			c0.05,1.89-1.32,4.13-5.33,4.23c-2.76,0.07-5.33-0.75-7.87-2.52C155.77,24.41,155.53,24.34,155.22,24.35z"/>
	</g>
</g>
</svg>
