<?xml version="1.0" encoding="utf-8"?>
<!-- Generator: Adobe Illustrator 23.1.0, SVG Export Plug-In . SVG Version: 6.00 Build 0)  -->
<svg version="1.1" id="Layer_1" xmlns="http://www.w3.org/2000/svg" xmlns:xlink="http://www.w3.org/1999/xlink" x="0px" y="0px"
	 viewBox="0 0 174.27 34.06" style="enable-background:new 0 0 174.27 34.06;" xml:space="preserve">
<style type="text/css">
	.st0{fill:#95C943;}
	.st1{fill:#37A8DF;}
	.st2{fill:#F79326;}
	.st3{fill:#EB1B7D;}
</style>
<g>
	<path class="st0" d="M25.92,2.62C26.23,2.84,25.7,13.8,25.7,13.8l-7.23,0.9c0,0-0.9-4.63-4.94-4.63c-2.34,0-4.31,2.47-4.31,7.46
		c0,5.3,3.19,7.14,5.44,7.14c2.88,0,5.03-2.43,5.48-3.05c2.02,2.11,5.88,5.57,5.88,5.57s-2.83,6.65-11.37,6.65
		C7.64,33.84,0,28.4,0,17.53C0,6.17,6.78,1.99,13.07,1.99c3.41,0,5.3,1.89,5.3,1.89l0.49-2.65C18.87,1.32,23.99,1.41,25.92,2.62z"/>
	<path class="st0" d="M58.89,17.31c0,8.54-4.4,16.76-14.55,16.76c-9.03,0-15.45-4.94-15.45-16.85S35.84,1.05,44.29,1.05
		S58.89,6.93,58.89,17.31z M38.18,17.67c0,5.26,3.23,7.41,6.06,7.41c2.79,0,5.26-1.84,5.26-7.46c0-4.63-1.53-8.22-5.3-8.22
		C39.71,9.4,38.18,12.86,38.18,17.67z"/>
	<path class="st1" d="M76.94,1.86c0,0.04,0.31,6.56,0.04,6.65S73.3,9,73.3,9c-0.45,3.23-0.72,17.43-0.67,17.43s4.58-0.09,4.63-0.18
		s1.53-5.62,1.53-5.79s5.84,0.67,5.97,0.76s0.27,12.13,0.13,12.13s-23.58,0.4-23.58-0.09s-0.18-6.47-0.09-6.56s3.01-0.13,3.1-0.22
		s0.18-13.61,0.45-17.88c0-0.22-2.7,0.04-2.79,0s-0.58-6.78-0.13-7.05C62.12,1.41,76.94,1.81,76.94,1.86z"/>
	<path class="st2" d="M117.37,17.31c0,8.54-4.4,16.76-14.55,16.76c-9.03,0-15.45-4.94-15.45-16.85s6.96-16.17,15.41-16.17
		S117.37,6.93,117.37,17.31z M96.66,17.67c0,5.26,3.23,7.41,6.06,7.41c2.79,0,5.26-1.84,5.26-7.46c0-4.63-1.53-8.22-5.3-8.22
		C98.18,9.4,96.66,12.86,96.66,17.67z"/>
	<path class="st3" d="M120.46,27.24c0.76,0,2.88-0.18,2.88-0.45V8.77c0,0-2.88,0.09-2.96-0.13s0.04-6.74,0.22-6.92
		s9.52,0.13,12.08,0.13c4.36,0,13.03,0.09,13.03,8.27c0,6.33-4.36,8.49-4.36,8.49l4.36,8.89c0,0,2.65-0.09,2.65,0
		s0.36,5.62,0.22,5.88s-13.52,0.22-13.61-0.18s-0.18-5.57,0.09-5.57s2.07-0.04,2.07-0.27s-2.96-6.74-3.1-6.74s-3.28,0.36-3.41,0.36
		s-0.22,6.38,0.13,6.38s1.93,0.13,1.93,0.18s0.13,5.57,0,5.71s-11.99-0.13-11.99-0.13C120.68,33.26,119.7,27.24,120.46,27.24z
		 M130.75,14.25c0.27-0.13,5.75,0.67,5.75-3.46c0-2.7-5.71-1.98-5.71-1.98S130.75,14.34,130.75,14.25z"/>
	<path class="st3" d="M166.5,0.01c0,0,4.67-0.18,6.87,0.76c0.22,0.09-0.54,8.76-0.54,10.2c0,0.67-7.01,0.63-7.01,0.45
		c-0.22-2.61-1.75-3.59-3.14-3.59c-0.81,0-2.47,0.4-2.47,2.2c0,1.62,3.37,2.61,6.69,4.58c4,2.34,7.37,4.72,7.37,10.24
		c0,5.08-4.4,8.89-8.89,8.89c-4.63,0-6.29-1.75-6.96-2.52c-0.09,0.99-0.18,2.79-0.22,2.79c-0.22-0.09-6.78-0.4-6.78-0.4
		c-0.09-0.99-0.09-9.07-0.09-11.41c3.05-0.67,6.15-0.81,7.05-0.67c0.81,3.05,2.65,4.67,4.09,4.67c1.3,0,2.47-0.72,2.47-2.07
		c0-2.56-2.88-3.37-5.57-4.85c-4-2.11-7.86-4.4-7.86-10.83c0-4.45,3.68-8.09,9.7-8.09c2.61,0,4.22,0.99,4.99,1.8L166.5,0.01z"/>
</g>
</svg>
