<?xml version="1.0" encoding="utf-8"?>
<!-- Generator: Adobe Illustrator 23.1.0, SVG Export Plug-In . SVG Version: 6.00 Build 0)  -->
<svg version="1.1" id="Layer_1" xmlns="http://www.w3.org/2000/svg" xmlns:xlink="http://www.w3.org/1999/xlink" x="0px" y="0px"
	 viewBox="0 0 239.33 47.15" style="enable-background:new 0 0 239.33 47.15;" xml:space="preserve">
<style type="text/css">
	.st0{fill:#95C943;}
	.st1{fill:#92C743;}
	.st2{fill:#37A8DF;}
	.st3{fill:#F79326;}
	.st4{fill:#EB1B7D;}
	.st5{fill:#EA1B7D;}
</style>
<g>
	<path class="st0" d="M35.63,45.12c-1.9,0.95-6.16,1.96-11.72,1.96C8.13,47.08,0,37.26,0,24.25C0,8.67,11.11,0,24.93,0
		c5.35,0,9.42,1.08,11.24,2.03l-2.1,8.2c-2.1-0.88-5.01-1.69-8.67-1.69c-8.2,0-14.56,4.95-14.56,15.11c0,9.14,5.42,14.9,14.63,14.9
		c3.12,0,6.57-0.68,8.6-1.49L35.63,45.12z"/>
	<path class="st1" d="M82.17,23.1c0,14.97-9.08,24.05-22.42,24.05c-13.55,0-21.47-10.23-21.47-23.24C38.27,10.23,47.01,0,60.49,0
		C74.52,0,82.17,10.5,82.17,23.1z M49.18,23.71c0,8.94,4.2,15.24,11.11,15.24c6.98,0,10.97-6.64,10.97-15.51
		c0-8.2-3.93-15.24-11.04-15.24C53.24,8.2,49.18,14.84,49.18,23.71z"/>
	<path class="st2" d="M88.95,0.75h10.36v36.99h18.15v8.67H88.95V0.75z"/>
	<path class="st3" d="M162.78,23.1c0,14.97-9.08,24.05-22.42,24.05c-13.55,0-21.47-10.23-21.47-23.24
		c0-13.68,8.74-23.91,22.22-23.91C155.13,0,162.78,10.5,162.78,23.1z M129.79,23.71c0,8.94,4.2,15.24,11.11,15.24
		c6.98,0,10.97-6.64,10.97-15.51c0-8.2-3.93-15.24-11.04-15.24C133.86,8.2,129.79,14.84,129.79,23.71z"/>
	<path class="st4" d="M169.56,1.35c3.32-0.54,8.26-0.95,13.75-0.95c6.77,0,11.52,1.02,14.77,3.59c2.71,2.17,4.2,5.35,4.2,9.55
		c0,5.83-4.13,9.82-8.06,11.24V25c3.18,1.29,4.95,4.34,6.1,8.54c1.42,5.15,2.84,11.11,3.73,12.87h-10.57
		c-0.74-1.29-1.83-5.01-3.18-10.64c-1.22-5.69-3.18-7.25-7.38-7.32h-3.12V46.4h-10.23V1.35z M179.79,21h4.06
		c5.15,0,8.2-2.57,8.2-6.57c0-4.2-2.85-6.3-7.59-6.37c-2.51,0-3.93,0.2-4.67,0.34V21z"/>
	<path class="st5" d="M210.07,35.77c2.78,1.42,7.05,2.85,11.45,2.85c4.74,0,7.25-1.96,7.25-4.94c0-2.85-2.17-4.47-7.65-6.44
		c-7.59-2.64-12.53-6.84-12.53-13.48c0-7.79,6.5-13.75,17.27-13.75c5.15,0,8.94,1.08,11.65,2.3l-2.3,8.33
		c-1.83-0.88-5.08-2.17-9.55-2.17c-4.47,0-6.64,2.03-6.64,4.4c0,2.91,2.57,4.2,8.47,6.44c8.06,2.98,11.85,7.18,11.85,13.62
		c0,7.65-5.89,14.16-18.43,14.16c-5.22,0-10.36-1.35-12.94-2.78L210.07,35.77z"/>
</g>
</svg>
