<?xml version="1.0" encoding="utf-8"?>
<!-- Generator: Adobe Illustrator 23.1.0, SVG Export Plug-In . SVG Version: 6.00 Build 0)  -->
<svg version="1.1" id="Layer_1" xmlns="http://www.w3.org/2000/svg" xmlns:xlink="http://www.w3.org/1999/xlink" x="0px" y="0px"
	 viewBox="0 0 186.76 39.5" style="enable-background:new 0 0 186.76 39.5;" xml:space="preserve">
<style type="text/css">
	.st0{fill:#95C943;}
	.st1{fill:#37A8DF;}
	.st2{fill:#AA51AD;}
	.st3{fill:#EB1B7D;}
	.st4{fill:#D80505;}
	.st5{fill:#F79326;}
</style>
<g>
	<g>
		<path class="st0" d="M27.58,1.35c0.37,0.22,0.74,12.45,0.74,12.45l-7.96,1.64c0,0-1.41-5.06-5.9-4.71
			c-2.6,0.21-4.57,3.13-4.13,8.67c0.47,5.89,4.17,7.65,6.67,7.46c3.19-0.25,5.38-3.14,5.82-3.88c2.43,2.17,7.03,5.67,7.03,5.67
			s-2.56,7.64-12.04,8.39c-7.79,0.62-16.75-4.75-17.71-16.83c-1-12.63,6.17-17.87,13.15-18.42c3.79-0.3,6.06,1.63,6.06,1.63
			l0.32-2.99C19.63,0.52,25.32,0.17,27.58,1.35z"/>
	</g>
	<g>
		<path class="st1" d="M63.36,18.26c0,9.51-4.91,18.68-16.22,18.68c-10.06,0-17.22-5.51-17.22-18.78S37.68,0.14,47.09,0.14
			C56.5,0.14,63.36,6.69,63.36,18.26z M40.28,18.66c0,5.86,3.61,8.26,6.76,8.26c3.1,0,5.86-2.05,5.86-8.31
			c0-5.16-1.7-9.16-5.91-9.16C41.98,9.45,40.28,13.3,40.28,18.66z"/>
	</g>
	<g>
		<path class="st2" d="M77.87,0c0.01,0.05,1.59,7.14,1.32,7.29c-0.28,0.15-3.95,1.24-3.95,1.24c0.12,3.64,2.53,19.28,2.58,19.27
			c0.05-0.01,5.01-0.97,5.05-1.08c0.03-0.11,0.61-6.46,0.57-6.65c-0.03-0.2,6.54-0.37,6.71-0.3c0.17,0.07,2.61,13.27,2.46,13.29
			c-0.15,0.03-25.82,4.94-25.92,4.39c-0.09-0.54-1.43-7.07-1.35-7.19c0.08-0.12,3.28-0.72,3.36-0.84c0.08-0.12-2.4-14.98-2.91-19.72
			c-0.04-0.25-2.95,0.56-3.06,0.53c-0.11-0.03-1.93-7.34-1.49-7.72C61.5,2.33,77.86-0.05,77.87,0z"/>
	</g>
	<g>
		<path class="st3" d="M126.58,21.17c-1.65,9.37-8.08,17.54-19.22,15.57c-9.91-1.75-16-8.42-13.69-21.49
			c2.31-13.07,10.78-16.4,20.05-14.76C122.98,2.13,128.6,9.78,126.58,21.17z M105.47,18.39c-0.34,5.85,3.12,8.45,6.27,8.64
			c3.1,0.18,5.97-1.71,6.33-7.96c0.3-5.15-1.17-9.25-5.37-9.49C107.7,9.29,105.78,13.04,105.47,18.39z"/>
	</g>
	<g>
		<path class="st4" d="M127.37,28.43c0.85,0.07,3.21,0.07,3.23-0.23l1.67-20.01c0,0-3.2-0.17-3.28-0.42
			c-0.08-0.26,0.67-7.48,0.89-7.66c0.22-0.18,10.57,1.03,13.41,1.27c4.84,0.4,14.46,1.3,13.71,10.39c-0.59,7.04-5.63,9.03-5.63,9.03
			l4.02,10.28c0,0,2.95,0.15,2.94,0.25c-0.01,0.1-0.12,6.27-0.3,6.56c-0.17,0.29-15.04-1-15.1-1.46c-0.06-0.46,0.32-6.2,0.61-6.18
			c0.3,0.02,2.3,0.14,2.32-0.11c0.02-0.25-2.67-7.76-2.82-7.77c-0.15-0.01-3.68,0.1-3.83,0.08c-0.15-0.01-0.84,7.06-0.44,7.1
			c0.4,0.03,2.13,0.33,2.13,0.38c0,0.05-0.37,6.2-0.53,6.34c-0.16,0.14-13.31-1.26-13.31-1.26
			C127.06,35.14,126.52,28.36,127.37,28.43z M139.99,14.97c0.31-0.12,6.32,1.28,6.71-3.31c0.25-2.99-6.15-2.72-6.15-2.72
			S139.99,15.07,139.99,14.97z"/>
	</g>
	<g>
		<path class="st5" d="M176.16,0.96c0,0,5.18-0.56,7.7,0.31c0.26,0.08,0.08,9.78,0.2,11.38c0.05,0.75-7.74,1.25-7.76,1.05
			c-0.45-2.88-2.23-3.86-3.78-3.75c-0.9,0.06-2.72,0.64-2.58,2.64c0.13,1.8,3.95,2.63,7.8,4.57c4.63,2.29,8.56,4.67,8.99,10.81
			c0.4,5.64-4.2,10.23-9.2,10.58c-5.14,0.36-7.13-1.46-7.94-2.25c-0.02,1.11,0.02,3.11-0.03,3.11c-0.26-0.08-7.57,0.08-7.57,0.08
			c-0.18-1.09-0.81-10.08-0.99-12.68c3.34-0.99,6.78-1.38,7.79-1.3c1.14,3.33,3.31,4.99,4.91,4.88c1.45-0.1,2.69-0.99,2.59-2.49
			c-0.2-2.85-3.46-3.52-6.57-4.96c-4.61-2.04-9.08-4.28-9.58-11.42c-0.35-4.94,3.47-9.28,10.16-9.75c2.9-0.2,4.77,0.77,5.68,1.61
			L176.16,0.96z"/>
	</g>
</g>
</svg>
